<svg width="14" height="14" viewBox="0 0 14 14" fill="none" xmlns="http://www.w3.org/2000/svg">
<path fill-rule="evenodd" clip-rule="evenodd" d="M6.14007 0C6.31768 0 6.46154 0.143858 6.46154 0.32147V6.14007C6.46154 6.31768 6.31768 6.46154 6.14007 6.46154H0.32147C0.143858 6.46154 0 6.31768 0 6.14007V0.32147C0 0.143858 0.143858 0 0.32147 0H6.14007ZM1.07692 5.3894H5.3894V1.07692H1.07692V5.3894Z" fill="#727273"/>
<path fill-rule="evenodd" clip-rule="evenodd" d="M6.14007 7.53857C6.31768 7.53857 6.46154 7.68243 6.46154 7.86004V13.6786C6.46154 13.8563 6.31768 14.0001 6.14007 14.0001H0.32147C0.143858 14.0001 0 13.8563 0 13.6786V7.86004C0 7.68243 0.143858 7.53857 0.32147 7.53857H6.14007ZM1.07692 12.928H5.3894V8.6155H1.07692V12.928Z" fill="#727273"/>
<path fill-rule="evenodd" clip-rule="evenodd" d="M13.6785 0C13.8561 0 14 0.143858 14 0.32147V6.14007C14 6.31768 13.8561 6.46154 13.6785 6.46154H7.85992C7.68231 6.46154 7.53845 6.31768 7.53845 6.14007V0.32147C7.53845 0.143858 7.68231 0 7.85992 0H13.6785ZM8.61538 5.3894H12.9278V1.07692H8.61538V5.3894Z" fill="#727273"/>
<path fill-rule="evenodd" clip-rule="evenodd" d="M13.6785 7.53857C13.8561 7.53857 14 7.68243 14 7.86004V13.6786C14 13.8563 13.8561 14.0001 13.6785 14.0001H7.85992C7.68231 14.0001 7.53845 13.8563 7.53845 13.6786V7.86004C7.53845 7.68243 7.68231 7.53857 7.85992 7.53857H13.6785ZM8.61538 12.928H12.9278V8.6155H8.61538V12.928Z" fill="#727273"/>
</svg>
