<?xml version="1.0" encoding="UTF-8"?>
<svg width="19px" height="19px" viewBox="0 0 19 19" version="1.1" xmlns="http://www.w3.org/2000/svg" xmlns:xlink="http://www.w3.org/1999/xlink">
    <title>003-appointment</title>
    <g id="MIS-UI" stroke="none" stroke-width="1" fill="none" fill-rule="evenodd">
        <g id="7.1.7a-My-Appraisals-Review-Form" transform="translate(-27.000000, -339.000000)" fill="#FFFFFF">
            <g id="003-appointment" transform="translate(27.000000, 339.000000)">
                <path d="M17.1445312,1.6328125 L15.3756387,1.6328125 L15.3756387,1.11328125 C15.3756387,0.499417969 14.8762207,0 14.2623574,0 C13.6484941,0 13.1490762,0.499417969 13.1490762,1.11328125 L13.1490762,1.6328125 L6.91470117,1.6328125 L6.91470117,1.11328125 C6.91470117,0.499417969 6.4152832,0 5.80141992,0 C5.18755664,0 4.68813867,0.499417969 4.68813867,1.11328125 L4.68813867,1.64654297 C4.6565957,1.63782227 4.62353125,1.6328125 4.58920508,1.6328125 L3.11061914,1.6328125 C2.08751367,1.6328125 1.25515039,2.46517578 1.25515039,3.48828125 L1.25515039,9.80923242 C1.25515039,10.0141875 1.42132617,10.1803262 1.62624414,10.1803262 C1.83116211,10.1803262 1.99733789,10.0141875 1.99733789,9.80923242 L1.99733789,5.45507812 L15.3756387,5.45507812 C15.5805566,5.45507812 15.7467324,5.28893945 15.7467324,5.08398438 C15.7467324,4.8790293 15.5805566,4.71289062 15.3756387,4.71289062 L1.99733789,4.71289062 L1.99733789,3.48828125 C1.99733789,2.87441797 2.49675586,2.375 3.11061914,2.375 L4.58920508,2.375 C4.62353125,2.375 4.6565957,2.36995312 4.68813867,2.36126953 L4.68813867,2.83886719 C4.68813867,3.45273047 5.18755664,3.95214844 5.80141992,3.95214844 C6.4152832,3.95214844 6.91470117,3.45273047 6.91470117,2.83886719 L6.91470117,2.375 L13.1490762,2.375 L13.1490762,2.83886719 C13.1490762,3.45273047 13.6484941,3.95214844 14.2623574,3.95214844 C14.8762207,3.95214844 15.3756387,3.45273047 15.3756387,2.83886719 L15.3756387,2.375 L17.1445312,2.375 C17.7583945,2.375 18.2578125,2.87441797 18.2578125,3.48828125 L18.2578125,17.5896211 C18.2578125,17.958043 17.9580801,18.2578125 17.5896211,18.2578125 C17.2211621,18.2578125 16.9214297,17.958043 16.9214297,17.5896211 L16.9214297,16.6296387 C16.9214297,16.4246836 16.7552539,16.2585449 16.5503359,16.2585449 L12.2337363,16.2585449 C12.0288184,16.2585449 11.8626426,16.4246836 11.8626426,16.6296387 C11.8626426,16.8345937 12.0288184,17.0007324 12.2337363,17.0007324 L16.1792422,17.0007324 L16.1792422,17.5896211 C16.1792422,17.8312402 16.2403984,18.0587949 16.3479043,18.2578125 L1.41015625,18.2578125 C1.0418457,18.2578125 0.7421875,17.9581543 0.7421875,17.5898438 L0.7421875,17.0007324 L9.04819336,17.0007324 C9.25311133,17.0007324 9.41928711,16.8345937 9.41928711,16.6296387 C9.41928711,16.4246836 9.25311133,16.2585449 9.04819336,16.2585449 L5.34037305,16.2585449 C5.98882227,15.7000859 6.40058789,14.8740313 6.40058789,13.953125 C6.40058789,12.2752246 5.03551953,10.9101562 3.35761914,10.9101562 C1.67971875,10.9101562 0.314650391,12.2752246 0.314650391,13.953125 C0.314650391,14.8740312 0.726416016,15.7000859 1.37486523,16.2585449 L0.37109375,16.2585449 C0.166175781,16.2585449 0,16.4246836 0,16.6296387 L0,17.5898438 C0,18.3673965 0.632603516,19 1.41015625,19 L17.5896211,19 C18.3672852,19 19,18.3673223 19,17.5896211 L19,3.48828125 C19,2.46517578 18.1676367,1.6328125 17.1445312,1.6328125 Z M6.17251367,2.83886719 C6.17251367,3.04348828 6.00604102,3.20996094 5.80141992,3.20996094 C5.59679883,3.20996094 5.43032617,3.04348828 5.43032617,2.83886719 L5.43032617,1.11328125 C5.43032617,0.908660156 5.59679883,0.7421875 5.80141992,0.7421875 C6.00604102,0.7421875 6.17251367,0.908660156 6.17251367,1.11328125 L6.17251367,2.83886719 Z M14.6334512,2.83886719 C14.6334512,3.04348828 14.4669785,3.20996094 14.2623574,3.20996094 C14.0577363,3.20996094 13.8912637,3.04348828 13.8912637,2.83886719 L13.8912637,1.11328125 C13.8912637,0.908660156 14.0577363,0.7421875 14.2623574,0.7421875 C14.4669785,0.7421875 14.6334512,0.908660156 14.6334512,1.11328125 L14.6334512,2.83886719 Z M1.05683789,13.953125 C1.05683789,12.6844668 2.08896094,11.6523438 3.35761914,11.6523438 C4.62627734,11.6523438 5.65840039,12.6844668 5.65840039,13.953125 C5.65840039,15.2217832 4.62627734,16.2539062 3.35761914,16.2539062 C2.08896094,16.2539062 1.05683789,15.2217832 1.05683789,13.953125 Z" id="Shape" fill-rule="nonzero"></path>
                <path d="M17.3786543,4.82162109 C17.309668,4.75259766 17.2139258,4.71289062 17.1163281,4.71289062 C17.0186934,4.71289062 16.9229883,4.75259766 16.8539648,4.82162109 C16.7849414,4.89064453 16.7452344,4.98638672 16.7452344,5.08398438 C16.7452344,5.18158203 16.7849043,5.27732422 16.8539648,5.34634766 C16.9230254,5.41537109 17.0186934,5.45507812 17.1163281,5.45507812 C17.2139258,5.45507812 17.309668,5.41537109 17.3786543,5.34634766 C17.4476777,5.27732422 17.4874219,5.18158203 17.4874219,5.08398438 C17.4874219,4.98638672 17.4477148,4.89064453 17.3786543,4.82162109 Z" id="Path"></path>
                <path d="M11.0826777,16.3670898 C11.0136914,16.2980664 10.9179492,16.2587305 10.8203516,16.2587305 C10.7227539,16.2587305 10.6270117,16.2980664 10.5579883,16.3670898 C10.4889648,16.4364844 10.4492578,16.5318555 10.4492578,16.6294531 C10.4492578,16.7274219 10.4889277,16.822793 10.5579883,16.8921875 C10.6270117,16.9612109 10.7227539,17.0005469 10.8203516,17.0005469 C10.9179492,17.0005469 11.0136914,16.9612109 11.0826777,16.8921875 C11.1517012,16.822793 11.1914453,16.7270508 11.1914453,16.6294531 C11.1914453,16.5318555 11.1517383,16.4364844 11.0826777,16.3670898 Z" id="Path"></path>
                <path d="M8.39581055,11.28125 C7.61825781,11.28125 6.9856543,11.9138535 6.9856543,12.6914062 C6.9856543,13.468959 7.61825781,14.1015625 8.39581055,14.1015625 C9.17336328,14.1015625 9.8059668,13.468959 9.8059668,12.6914062 C9.8059668,11.9138535 9.17336328,11.28125 8.39581055,11.28125 Z M8.39581055,13.359375 C8.0275,13.359375 7.7278418,13.0597168 7.7278418,12.6914062 C7.7278418,12.3230957 8.0275,12.0234375 8.39581055,12.0234375 C8.76412109,12.0234375 9.0637793,12.3230957 9.0637793,12.6914062 C9.0637793,13.0597168 8.76412109,13.359375 8.39581055,13.359375 Z" id="Shape" fill-rule="nonzero"></path>
                <path d="M11.8593398,11.28125 C11.0817871,11.28125 10.4491836,11.9138535 10.4491836,12.6914062 C10.4491836,13.468959 11.0817871,14.1015625 11.8593398,14.1015625 C12.6368926,14.1015625 13.2694961,13.468959 13.2694961,12.6914062 C13.2694961,11.9138535 12.6368926,11.28125 11.8593398,11.28125 Z M11.8593398,13.359375 C11.4910293,13.359375 11.1913711,13.0597168 11.1913711,12.6914062 C11.1913711,12.3230957 11.4910293,12.0234375 11.8593398,12.0234375 C12.2276504,12.0234375 12.5273086,12.3230957 12.5273086,12.6914062 C12.5273086,13.0597168 12.2276504,13.359375 11.8593398,13.359375 Z" id="Shape" fill-rule="nonzero"></path>
                <path d="M15.3229063,11.28125 C14.5453535,11.28125 13.91275,11.9138535 13.91275,12.6914062 C13.91275,13.468959 14.5453535,14.1015625 15.3229063,14.1015625 C16.100459,14.1015625 16.7330625,13.468959 16.7330625,12.6914062 C16.7330625,11.9138535 16.100459,11.28125 15.3229063,11.28125 Z M15.3229063,13.359375 C14.9545957,13.359375 14.6549375,13.0597168 14.6549375,12.6914062 C14.6549375,12.3230957 14.9545957,12.0234375 15.3229063,12.0234375 C15.6912168,12.0234375 15.990875,12.3230957 15.990875,12.6914062 C15.990875,13.0597168 15.6912168,13.359375 15.3229063,13.359375 Z" id="Shape" fill-rule="nonzero"></path>
                <path d="M4.93228125,7.421875 C4.15472852,7.421875 3.522125,8.05447852 3.522125,8.83203125 C3.522125,9.60958398 4.15472852,10.2421875 4.93228125,10.2421875 C5.70983398,10.2421875 6.3424375,9.60958398 6.3424375,8.83203125 C6.3424375,8.05447852 5.70983398,7.421875 4.93228125,7.421875 Z M4.93228125,9.5 C4.5639707,9.5 4.2643125,9.2003418 4.2643125,8.83203125 C4.2643125,8.4637207 4.5639707,8.1640625 4.93228125,8.1640625 C5.3005918,8.1640625 5.60025,8.4637207 5.60025,8.83203125 C5.60025,9.2003418 5.3005918,9.5 4.93228125,9.5 Z" id="Shape" fill-rule="nonzero"></path>
                <path d="M11.8593398,7.421875 C11.0817871,7.421875 10.4491836,8.05447852 10.4491836,8.83203125 C10.4491836,9.60958398 11.0817871,10.2421875 11.8593398,10.2421875 C12.6368926,10.2421875 13.2694961,9.60958398 13.2694961,8.83203125 C13.2694961,8.05447852 12.6368926,7.421875 11.8593398,7.421875 Z M11.8593398,9.5 C11.4910293,9.5 11.1913711,9.2003418 11.1913711,8.83203125 C11.1913711,8.4637207 11.4910293,8.1640625 11.8593398,8.1640625 C12.2276504,8.1640625 12.5273086,8.4637207 12.5273086,8.83203125 C12.5273086,9.2003418 12.2276504,9.5 11.8593398,9.5 Z" id="Shape" fill-rule="nonzero"></path>
                <path d="M15.3229063,7.421875 C14.5453535,7.421875 13.91275,8.05447852 13.91275,8.83203125 C13.91275,9.60958398 14.5453535,10.2421875 15.3229063,10.2421875 C16.100459,10.2421875 16.7330625,9.60958398 16.7330625,8.83203125 C16.7330625,8.05447852 16.100459,7.421875 15.3229063,7.421875 Z M15.3229063,9.5 C14.9545957,9.5 14.6549375,9.2003418 14.6549375,8.83203125 C14.6549375,8.4637207 14.9545957,8.1640625 15.3229063,8.1640625 C15.6912168,8.1640625 15.990875,8.4637207 15.990875,8.83203125 C15.990875,9.2003418 15.6912168,9.5 15.3229063,9.5 Z" id="Shape" fill-rule="nonzero"></path>
                <path d="M8.39581055,7.421875 C7.61825781,7.421875 6.9856543,8.05447852 6.9856543,8.83203125 C6.9856543,9.60958398 7.61825781,10.2421875 8.39581055,10.2421875 C9.17336328,10.2421875 9.8059668,9.60958398 9.8059668,8.83203125 C9.8059668,8.05447852 9.17336328,7.421875 8.39581055,7.421875 Z M8.39581055,9.5 C8.0275,9.5 7.7278418,9.2003418 7.7278418,8.83203125 C7.7278418,8.4637207 8.0275,8.1640625 8.39581055,8.1640625 C8.76412109,8.1640625 9.0637793,8.4637207 9.0637793,8.83203125 C9.0637793,9.2003418 8.76412109,9.5 8.39581055,9.5 Z" id="Shape" fill-rule="nonzero"></path>
                <path d="M4.67964063,13.0487324 C4.53469141,12.9038203 4.29978906,12.9038203 4.15480273,13.0487324 L2.94629883,14.2572734 L2.53330859,13.8442832 C2.38835937,13.6993711 2.15345703,13.6993711 2.0084707,13.8442832 C1.86355859,13.9891953 1.86355859,14.2241719 2.0084707,14.3691211 L2.68389844,15.0444746 C2.75351563,15.1140547 2.84788477,15.153168 2.94629883,15.153168 C3.04471289,15.153168 3.13908203,15.1140547 3.20869922,15.0444746 L4.67964063,13.5735332 C4.82455273,13.4286211 4.82455273,13.1936445 4.67964063,13.0487324 Z" id="Path"></path>
            </g>
        </g>
    </g>
</svg>