<?xml version="1.0" encoding="UTF-8"?>
<svg width="19px" height="15px" viewBox="0 0 19 15" version="1.1" xmlns="http://www.w3.org/2000/svg" xmlns:xlink="http://www.w3.org/1999/xlink">
    <title>001-book</title>
    <g id="MIS-UI" stroke="none" stroke-width="1" fill="none" fill-rule="evenodd">
        <g id="7.1.7a-My-Appraisals-Review-Form" transform="translate(-27.000000, -893.000000)" fill="#FFFFFF" fill-rule="nonzero">
            <g id="001-book" transform="translate(27.000000, 893.000000)">
                <path d="M17.9534323,12.539715 L15.9959145,12.539715 L16.6765083,12.3572922 C16.7373278,12.3269002 16.8285392,12.2964727 16.8589311,12.2052613 C16.889323,12.1140499 16.9197506,12.0532304 16.889323,11.962019 L16.4378979,10.2865083 C16.4403919,10.2569359 16.4390024,10.2272209 16.433266,10.1986105 L16.1292399,9.01286223 C16.11481,8.98400238 16.0933967,8.94837292 16.0685273,8.91555819 L14.5474347,3.26996437 C14.5555582,3.22842043 14.5563777,3.18559382 14.5482542,3.14490499 L14.244228,1.95915677 C14.2254869,1.92167458 14.1951663,1.87271971 14.1604276,1.83349169 L13.7273159,0.226175772 C13.696924,0.0741448931 13.5145012,-0.0170665083 13.3624703,0.0133610451 L10.4133135,0.803871734 C10.2612827,0.834263658 10.1700713,1.01668646 10.2004988,1.16871734 L10.8562233,3.60880048 C10.6123397,3.48733967 10.3380998,3.41857482 10.0484679,3.41857482 L1.23135392,3.41857482 C1.10975059,3.41857482 1.01853919,3.4793943 0.957719715,3.60099762 C0.896900238,3.69220903 0.896900238,3.81381235 0.957719715,3.90502375 L1.32256532,4.48268409 C1.59619952,4.96913302 1.59619952,5.54682898 1.32256532,6.03327791 L1.05374109,6.45894299 L0.319239905,6.45894299 C0.19763658,6.45894299 0.106425178,6.51976247 0.0456057007,6.6413658 C-0.0152137767,6.7325772 -0.0152137767,6.85418052 0.0456057007,6.94539192 L0.410451306,7.52305226 C0.684085511,8.00950119 0.684085511,8.58719715 0.410451306,9.07364608 L0.0456057007,9.65137767 C-0.0152137767,9.74258907 -0.0152137767,9.8641924 0.0456057007,9.9554038 C0.106425178,10.0466152 0.19763658,10.1074347 0.319239905,10.1074347 L1.03453682,10.1074347 L1.32256532,10.5634917 C1.59619952,11.0499406 1.59619952,11.6276366 1.32256532,12.1140855 L1.05374109,12.5397506 L0.319239905,12.5397506 C0.136817102,12.5397506 0.0152137767,12.6613539 0.0152137767,12.8437767 L0.0152137767,14.6680048 C0.0152137767,14.8504276 0.136817102,14.9720309 0.319239905,14.9720309 L17.9534323,14.9720309 C18.1358551,14.9720309 18.2574584,14.8504276 18.2574584,14.6680048 L18.2574584,12.8437767 C18.2574584,12.6613539 18.1358551,12.539715 17.9534323,12.539715 Z M10.4502257,9.54477435 C10.7656532,9.21644893 10.9605463,8.7716152 10.9605463,8.28317102 C10.9605463,7.79472684 10.7656532,7.34989311 10.4502257,7.0215677 C10.9128385,6.91649644 11.3101425,6.63466746 11.5662827,6.25115202 L12.6144656,10.1515796 L12.8759857,11.1715439 C12.8830404,11.1856176 12.8909501,11.1992637 12.8995368,11.2124109 L13.2562233,12.539715 L11.4048812,12.539715 C11.6952613,12.216342 11.8726603,11.789715 11.8726603,11.3235748 C11.872696,10.4582423 11.2618646,9.72912114 10.4502257,9.54477435 Z M13.8489192,3.02333729 L11.5078147,3.6618171 L11.3557838,3.08415677 L13.6968884,2.44567696 L13.8489192,3.02333729 Z M14.0117458,3.59896675 L15.4094181,8.88705463 L13.0580879,9.51730404 L11.8596912,5.02941805 C11.8389549,4.85362233 11.7933135,4.6852019 11.7257957,4.52804038 L11.6513658,4.24927553 L14.0117458,3.59896675 Z M13.240867,10.1074347 L15.5719596,9.50194774 L15.7246318,10.0795724 L13.3928979,10.7155226 L13.240867,10.1074347 Z M13.8489192,12.4789311 L13.53,11.2846318 L15.8768409,10.6555938 L16.1900238,11.8404513 L13.8489192,12.4789311 Z M13.240867,0.682232779 L13.543753,1.8281829 L11.1744656,2.46324228 L10.8693705,1.32071259 L13.240867,0.682232779 Z M1.83944181,4.14826603 L1.77862233,4.02666271 L10.0484679,4.02666271 C10.5496675,4.02666271 10.9825653,4.33396675 11.1681235,4.76942993 L11.2549169,5.0923753 C11.2610808,5.14172209 11.2646081,5.19185273 11.2646081,5.24280285 C11.2646081,5.91167458 10.7173397,6.45894299 10.0484679,6.45894299 L9.13635392,6.45894299 L1.77862233,6.45894299 L1.83944181,6.33733967 C2.23467933,5.66846793 2.23467933,4.8171734 1.83944181,4.14826603 Z M0.927327791,7.18866983 L0.866508314,7.06706651 L1.23135392,7.06706651 L9.13635392,7.06706651 C9.80522565,7.06706651 10.3524941,7.61433492 10.3524941,8.28320665 C10.3524941,8.95207838 9.80522565,9.49934679 9.13635392,9.49934679 L1.23135392,9.49934679 L0.866508314,9.49934679 L0.927327791,9.37774347 C1.32256532,8.7088361 1.32256532,7.85754157 0.927327791,7.18866983 Z M1.83944181,10.229038 L1.77862233,10.1074347 L9.13635392,10.1074347 L10.0484679,10.1074347 C10.7173397,10.1074347 11.2646081,10.6547031 11.2646081,11.3235748 C11.2646081,11.9924466 10.7173397,12.539715 10.0484679,12.539715 L1.77862233,12.539715 L1.83944181,12.4181116 C2.23467933,11.7492399 2.23467933,10.8979097 1.83944181,10.229038 Z M17.6494418,14.363943 L0.623266033,14.363943 L0.623266033,13.1478029 L1.23135392,13.1478029 L10.0484679,13.1478029 L13.6665321,13.1478029 L13.7273515,13.1478029 L17.6494418,13.1478029 L17.6494418,14.363943 L17.6494418,14.363943 Z" id="Shape"></path>
            </g>
        </g>
    </g>
</svg>