<svg width="20" height="20" viewBox="0 0 20 20" fill="none" xmlns="http://www.w3.org/2000/svg">
<path fill-rule="evenodd" clip-rule="evenodd" d="M12.5312 3.875H15.8125C16.0541 3.875 16.25 4.07088 16.25 4.3125V5.1875C16.25 5.42913 16.0541 5.625 15.8125 5.625H4.4375C4.19588 5.625 4 5.42913 4 5.1875V4.3125C4 4.07088 4.19588 3.875 4.4375 3.875H7.71875L7.97578 3.36368C8.085 3.14031 8.3123 2.99905 8.56094 3H11.6863C11.9354 2.99983 12.1632 3.1407 12.2742 3.36368L12.5312 3.875ZM4.875 15.6875C4.875 16.4124 5.46263 17 6.1875 17H14.0625C14.7874 17 15.375 16.4124 15.375 15.6875V6.5H4.875V15.6875ZM12.3125 8.6875C12.3125 8.44588 12.5084 8.25 12.75 8.25C12.9916 8.25 13.1875 8.44588 13.1875 8.6875V14.8125C13.1875 15.0541 12.9916 15.25 12.75 15.25C12.5084 15.25 12.3125 15.0541 12.3125 14.8125V8.6875ZM10.125 8.25C9.88338 8.25 9.6875 8.44588 9.6875 8.6875V14.8125C9.6875 15.0541 9.88338 15.25 10.125 15.25C10.3666 15.25 10.5625 15.0541 10.5625 14.8125V8.6875C10.5625 8.44588 10.3666 8.25 10.125 8.25ZM7.0625 8.6875C7.0625 8.44588 7.25838 8.25 7.5 8.25C7.74162 8.25 7.9375 8.44588 7.9375 8.6875V14.8125C7.9375 15.0541 7.74162 15.25 7.5 15.25C7.25838 15.25 7.0625 15.0541 7.0625 14.8125V8.6875Z" fill="#F70329"/>
</svg>
