<?xml version="1.0" encoding="UTF-8"?>
<svg width="16px" height="16px" viewBox="0 0 16 16" version="1.1" xmlns="http://www.w3.org/2000/svg" xmlns:xlink="http://www.w3.org/1999/xlink">
    <title>006-diagram</title>
    <g id="MIS-UI" stroke="none" stroke-width="1" fill="none" fill-rule="evenodd">
        <g id="7.1.7a-My-Appraisals-Review-Form" transform="translate(-29.000000, -970.000000)" fill="#FFFFFF" fill-rule="nonzero">
            <g id="006-diagram" transform="translate(29.000000, 970.000000)">
                <path d="M8.8,13.3333333 L8.26666667,13.3333333 C8.85576667,13.3333333 9.33333333,12.8557667 9.33333333,12.2666667 L9.33333333,11.7333333 C9.33333333,11.1442333 8.85576667,10.6666667 8.26666667,10.6666667 L7.73333333,10.6666667 C7.14423333,10.6666667 6.66666667,11.1442333 6.66666667,11.7333333 L6.66666667,12.2666667 C6.66666667,12.8557667 7.14423333,13.3333333 7.73333333,13.3333333 L7.2,13.3333333 C6.75816667,13.3333333 6.4,13.6915 6.4,14.1333333 L6.4,15.7333333 C6.4,15.8806 6.5194,16 6.66666667,16 L9.33333333,16 C9.4806,16 9.6,15.8806 9.6,15.7333333 L9.6,14.1333333 C9.6,13.6915 9.24183333,13.3333333 8.8,13.3333333 Z M7.2,12.2666667 L7.2,11.7333333 C7.2,11.4387667 7.43876667,11.2 7.73333333,11.2 L8.26666667,11.2 C8.56123333,11.2 8.8,11.4387667 8.8,11.7333333 L8.8,12.2666667 C8.8,12.5612333 8.56123333,12.8 8.26666667,12.8 L7.73333333,12.8 C7.43876667,12.8 7.2,12.5612333 7.2,12.2666667 Z M9.06666667,15.4666667 L6.93333333,15.4666667 L6.93333333,14.1333333 C6.93333333,13.9860667 7.05273333,13.8666667 7.2,13.8666667 L8.8,13.8666667 C8.94726667,13.8666667 9.06666667,13.9860667 9.06666667,14.1333333 L9.06666667,15.4666667 Z" id="Shape"></path>
                <path d="M8.8,2.66666667 L8.26666667,2.66666667 C8.85576667,2.66666667 9.33333333,2.1891 9.33333333,1.6 L9.33333333,1.06666667 C9.33333333,0.477566667 8.85576667,0 8.26666667,0 L7.73333333,0 C7.14423333,0 6.66666667,0.477566667 6.66666667,1.06666667 L6.66666667,1.6 C6.66666667,2.1891 7.14423333,2.66666667 7.73333333,2.66666667 L7.2,2.66666667 C6.75816667,2.66666667 6.4,3.02483333 6.4,3.46666667 L6.4,5.06666667 C6.4,5.21393333 6.5194,5.33333333 6.66666667,5.33333333 L9.33333333,5.33333333 C9.4806,5.33333333 9.6,5.21393333 9.6,5.06666667 L9.6,3.46666667 C9.6,3.02483333 9.24183333,2.66666667 8.8,2.66666667 Z M7.2,1.6 L7.2,1.06666667 C7.2,0.7721 7.43876667,0.533333333 7.73333333,0.533333333 L8.26666667,0.533333333 C8.56123333,0.533333333 8.8,0.7721 8.8,1.06666667 L8.8,1.6 C8.8,1.89456667 8.56123333,2.13333333 8.26666667,2.13333333 L7.73333333,2.13333333 C7.43876667,2.13333333 7.2,1.89456667 7.2,1.6 Z M9.06666667,4.8 L6.93333333,4.8 L6.93333333,3.46666667 C6.93333333,3.3194 7.05273333,3.2 7.2,3.2 L8.8,3.2 C8.94726667,3.2 9.06666667,3.3194 9.06666667,3.46666667 L9.06666667,4.8 Z" id="Shape"></path>
                <path d="M15.2,13.3333333 L14.6666667,13.3333333 C15.2557667,13.3333333 15.7333333,12.8557667 15.7333333,12.2666667 L15.7333333,11.7333333 C15.7333333,11.1442333 15.2557667,10.6666667 14.6666667,10.6666667 L14.1333333,10.6666667 C13.5442333,10.6666667 13.0666667,11.1442333 13.0666667,11.7333333 L13.0666667,12.2666667 C13.0666667,12.8557667 13.5442333,13.3333333 14.1333333,13.3333333 L13.6,13.3333333 C13.1581667,13.3333333 12.8,13.6915 12.8,14.1333333 L12.8,15.7333333 C12.8,15.8806 12.9194,16 13.0666667,16 L15.7333333,16 C15.8806,16 16,15.8806 16,15.7333333 L16,14.1333333 C16,13.6915 15.6418333,13.3333333 15.2,13.3333333 Z M13.6,12.2666667 L13.6,11.7333333 C13.6,11.4387667 13.8387667,11.2 14.1333333,11.2 L14.6666667,11.2 C14.9612333,11.2 15.2,11.4387667 15.2,11.7333333 L15.2,12.2666667 C15.2,12.5612333 14.9612333,12.8 14.6666667,12.8 L14.1333333,12.8 C13.8387667,12.8 13.6,12.5612333 13.6,12.2666667 Z M15.4666667,15.4666667 L13.3333333,15.4666667 L13.3333333,14.1333333 C13.3333333,13.9860667 13.4527333,13.8666667 13.6,13.8666667 L15.2,13.8666667 C15.3472667,13.8666667 15.4666667,13.9860667 15.4666667,14.1333333 L15.4666667,15.4666667 Z" id="Shape"></path>
                <path d="M2.4,13.3333333 L1.86666667,13.3333333 C2.45576667,13.3333333 2.93333333,12.8557667 2.93333333,12.2666667 L2.93333333,11.7333333 C2.93333333,11.1442333 2.45576667,10.6666667 1.86666667,10.6666667 L1.33333333,10.6666667 C0.744233333,10.6666667 0.266666667,11.1442333 0.266666667,11.7333333 L0.266666667,12.2666667 C0.266666667,12.8557667 0.744233333,13.3333333 1.33333333,13.3333333 L0.8,13.3333333 C0.358166667,13.3333333 0,13.6915 0,14.1333333 L0,15.7333333 C0,15.8806 0.1194,16 0.266666667,16 L2.93333333,16 C3.0806,16 3.2,15.8806 3.2,15.7333333 L3.2,14.1333333 C3.2,13.6915 2.84183333,13.3333333 2.4,13.3333333 Z M0.8,12.2666667 L0.8,11.7333333 C0.8,11.4387667 1.03876667,11.2 1.33333333,11.2 L1.86666667,11.2 C2.16123333,11.2 2.4,11.4387667 2.4,11.7333333 L2.4,12.2666667 C2.4,12.5612333 2.16123333,12.8 1.86666667,12.8 L1.33333333,12.8 C1.03876667,12.8 0.8,12.5612333 0.8,12.2666667 Z M2.66666667,15.4666667 L0.533333333,15.4666667 L0.533333333,14.1333333 C0.533333333,13.9860667 0.652733333,13.8666667 0.8,13.8666667 L2.4,13.8666667 C2.54726667,13.8666667 2.66666667,13.9860667 2.66666667,14.1333333 L2.66666667,15.4666667 Z" id="Shape"></path>
                <path d="M14.4,7.73333333 L8.26666667,7.73333333 L8.26666667,5.86666667 L7.73333333,5.86666667 L7.73333333,7.73333333 L1.6,7.73333333 C1.45273333,7.73333333 1.33333333,7.85273333 1.33333333,8 L1.33333333,10.1333333 L1.86666667,10.1333333 L1.86666667,8.26666667 L7.73333333,8.26666667 L7.73333333,10.1333333 L8.26666667,10.1333333 L8.26666667,8.26666667 L14.1333333,8.26666667 L14.1333333,10.1333333 L14.6666667,10.1333333 L14.6666667,8 C14.6666667,7.85273333 14.5472667,7.73333333 14.4,7.73333333 Z" id="Shape"></path>
                <path d="M13.3333333,8.8 L12.2666667,8.8 L12.2666667,9.33333333 L13.0666667,9.33333333 L13.0666667,10.1333333 L13.6,10.1333333 L13.6,9.06666667 C13.6,8.9194 13.4806,8.8 13.3333333,8.8 Z" id="Shape"></path>
                <path d="M9.33333333,6.66666667 L9.33333333,5.86666667 L8.8,5.86666667 L8.8,6.93333333 C8.8,7.0806 8.9194,7.2 9.06666667,7.2 L10.1333333,7.2 L10.1333333,6.66666667 L9.33333333,6.66666667 Z" id="Shape"></path>
                <path d="M2.66666667,8.8 C2.5194,8.8 2.4,8.9194 2.4,9.06666667 L2.4,10.1333333 L2.93333333,10.1333333 L2.93333333,9.33333333 L3.73333333,9.33333333 L3.73333333,8.8 L2.66666667,8.8 Z" id="Shape"></path>
                <rect id="Rectangle-path" x="6.66666667" y="8.8" width="1" height="1.06666667"></rect>
                <rect id="Rectangle-path" x="8.8" y="8.8" width="1" height="1.06666667"></rect>
                <path d="M6.66666667,5.86666667 L6.66666667,6.66666667 L5.86666667,6.66666667 L5.86666667,7.2 L6.93333333,7.2 C7.0806,7.2 7.2,7.0806 7.2,6.93333333 L7.2,5.86666667 L6.66666667,5.86666667 Z" id="Shape"></path>
            </g>
        </g>
    </g>
</svg>