<?xml version="1.0" encoding="UTF-8"?>
<svg width="18px" height="16px" viewBox="0 0 18 16" version="1.1" xmlns="http://www.w3.org/2000/svg" xmlns:xlink="http://www.w3.org/1999/xlink">
    <title>007-feedback</title>
    <g id="MIS-UI" stroke="none" stroke-width="1" fill="none" fill-rule="evenodd">
        <g id="7.1.7a-My-Appraisals-Review-Form" transform="translate(-28.000000, -931.000000)" fill="#FFFFFF" fill-rule="nonzero">
            <g id="007-feedback" transform="translate(28.000000, 931.000000)">
                <path d="M3.99431489,4.36878298 L11.9829787,4.36878298 C12.1836936,4.36878298 12.3461106,4.20636596 12.3461106,4.00565106 C12.3461106,3.80493617 12.1836936,3.64251915 11.9829787,3.64251915 L3.99431489,3.64251915 C3.7936,3.64251915 3.63118298,3.80493617 3.63118298,4.00565106 C3.63118298,4.2064 3.79363404,4.36878298 3.99431489,4.36878298 Z" id="Shape"></path>
                <path d="M8.3517617,8 L3.99431489,8 C3.7936,8 3.63118298,8.16241702 3.63118298,8.36313191 C3.63118298,8.56384681 3.7936,8.72626383 3.99431489,8.72626383 L8.3517617,8.72626383 C8.5524766,8.72626383 8.71489362,8.56384681 8.71489362,8.36313191 C8.71489362,8.16241702 8.5524766,8 8.3517617,8 Z" id="Shape"></path>
                <path d="M16.0397277,1.46382979 C16.0186894,1.46382979 15.9982979,1.46910638 15.9773277,1.47009362 L15.9773277,1.46382979 C15.9773277,0.662774468 15.3255489,0.0113361702 14.524834,0.0113361702 L1.45249362,0.0113361702 C0.651778723,0.0113361702 0,0.662774468 0,1.46382979 L0,15.6255319 C0,15.7723574 0.0886468085,15.9049532 0.224102128,15.9609872 C0.2688,15.9797787 0.316289362,15.9886638 0.363097872,15.9886638 C0.457429787,15.9886638 0.550331915,15.9517957 0.619846809,15.8822809 L4.14468085,12.3574468 L14.524834,12.3574468 C15.3255489,12.3574468 15.9773277,11.7060426 15.9773277,10.9049532 L15.9773277,4.8820766 L17.0227064,3.83686809 C17.0227064,3.83686809 17.0227064,3.83686809 17.0227064,3.83652766 C17.281566,3.57766809 17.4297872,3.21950638 17.4297872,2.85388936 C17.4297872,2.08725106 16.8064,1.46382979 16.0397277,1.46382979 Z M15.2510638,10.9049532 C15.2510638,11.3052936 14.9255149,11.631183 14.524834,11.631183 L3.99431489,11.631183 C3.89787234,11.631183 3.80565106,11.6694809 3.73756596,11.737566 L0.726229787,14.7489362 L0.726229787,1.46382979 C0.726229787,1.06348936 1.05177872,0.7376 1.45245957,0.7376 L14.5248,0.7376 C14.9255489,0.7376 15.2510638,1.06348936 15.2510638,1.46382979 L15.2510638,1.71186383 C15.1821277,1.75925106 15.1161872,1.81137021 15.0567489,1.87091064 L11.1057702,5.8212766 L3.99431489,5.8212766 C3.7936,5.8212766 3.63118298,5.98369362 3.63118298,6.18440851 C3.63118298,6.3851234 3.7936,6.54754043 3.99431489,6.54754043 L10.523166,6.54754043 L10.1744681,8.29188085 C10.150366,8.41102979 10.1879489,8.53409362 10.2737702,8.61988085 C10.3425702,8.68868085 10.4354723,8.72626383 10.5305191,8.72626383 C10.5539404,8.72626383 10.5780426,8.72377872 10.6014298,8.71918298 L12.4163404,8.35605106 C12.4872511,8.34185532 12.5517957,8.30747234 12.6021447,8.25674894 L15.2510638,5.6082383 L15.2510638,10.9049532 Z M12.1666723,7.6656 L10.993634,7.90035745 L11.2283915,6.72588936 L14.5246638,3.42961702 L15.4637957,4.36874894 L12.1666723,7.6656 Z M16.5092085,3.32340426 L15.9772936,3.85531915 L15.0380936,2.91611915 L15.5701787,2.38403404 C15.693583,2.26097021 15.8645106,2.19005957 16.0396936,2.19005957 C16.4056511,2.19005957 16.7035234,2.48793191 16.7035234,2.85388936 C16.7035574,3.02835745 16.6326128,3.19965957 16.5092085,3.32340426 Z" id="Shape"></path>
            </g>
        </g>
    </g>
</svg>