<?xml version="1.0" encoding="UTF-8"?>
<svg width="13px" height="16px" viewBox="0 0 13 16" version="1.1" xmlns="http://www.w3.org/2000/svg" xmlns:xlink="http://www.w3.org/1999/xlink">
    <title>002-file</title>
    <g id="MIS-UI" stroke="none" stroke-width="1" fill="none" fill-rule="evenodd">
        <g id="7.1.7a-My-Appraisals-Review-Form" transform="translate(-30.000000, -815.000000)" fill="#FFFFFF" fill-rule="nonzero">
            <g id="002-file" transform="translate(30.000000, 815.000000)">
                <polygon id="Rectangle-path" points="2.01040625 2 5.34375 2 5.34375 2.66665625 2.01040625 2.66665625"></polygon>
                <polygon id="Rectangle-path" points="2.01040625 3.33334375 2.6770625 3.33334375 2.6770625 4 2.01040625 4"></polygon>
                <polygon id="Rectangle-path" points="3.34375 3.33334375 4.01040625 3.33334375 4.01040625 4 3.34375 4"></polygon>
                <path d="M12.5794062,2.76434375 L9.91275,0.09765625 C9.85025,0.03515625 9.76546875,0 9.67709375,0 L1.01040625,0 C0.458125,0 0.01040625,0.44771875 0.01040625,1 L0.01040625,15 C0.01040625,15.5522813 0.458125,16 1.01040625,16 L11.6770625,16 C12.2293437,16 12.6770625,15.5522813 12.6770625,15 L12.6770625,3 C12.6770625,2.91159375 12.6419375,2.82684375 12.5794062,2.76434375 Z M12.0104062,15 C12.0104062,15.1840937 11.8611562,15.3333437 11.6770625,15.3333437 L1.01040625,15.3333437 C0.8263125,15.3333437 0.6770625,15.1840937 0.6770625,15 L0.6770625,1 C0.6770625,0.81590625 0.8263125,0.66665625 1.01040625,0.66665625 L9.5390625,0.66665625 L12.0104062,3.138 L12.0104062,15 Z" id="Shape"></path>
                <path d="M10.34375,2.66665625 C10.1596562,2.66665625 10.0104062,2.51740625 10.0104062,2.3333125 L10.0104062,0.3333125 L9.34375,0.3333125 L9.34375,2.3333125 C9.34375,2.88559375 9.79146875,3.3333125 10.34375,3.3333125 L11.0104062,3.3333125 L11.0104062,2.66665625 L10.34375,2.66665625 Z" id="Shape"></path>
                <polygon id="Rectangle-path" points="10.0104062 11.3333437 10.6770625 11.3333437 10.6770625 12 10.0104062 12"></polygon>
                <polygon id="Rectangle-path" points="8.67709375 11.3333437 9.34375 11.3333437 9.34375 12 8.67709375 12"></polygon>
                <polygon id="Rectangle-path" points="2.01040625 11.3333437 7.34375 11.3333437 7.34375 12 2.01040625 12"></polygon>
                <polygon id="Rectangle-path" points="2.01040625 13 10.6770625 13 10.6770625 13.6666562 2.01040625 13.6666562"></polygon>
                <path d="M10.0104062,5 L2.67709375,5 C2.30890625,5 2.0104375,5.29846875 2.0104375,5.66665625 L2.0104375,9.66665625 C2.0104375,10.0348437 2.30890625,10.3333125 2.67709375,10.3333125 L10.0104375,10.3333125 C10.378625,10.3333125 10.6770937,10.0348437 10.6770937,9.66665625 L10.6770937,5.66665625 C10.6770937,5.29846875 10.3785937,5 10.0104062,5 Z M10.0104375,9.66665625 L2.67709375,9.66665625 L2.67709375,5.66665625 L10.0104375,5.66665625 L10.0104375,9.66665625 L10.0104375,9.66665625 Z" id="Shape"></path>
            </g>
        </g>
    </g>
</svg>