<?xml version="1.0" encoding="UTF-8"?>
<svg width="18px" height="23px" viewBox="0 0 18 23" version="1.1" xmlns="http://www.w3.org/2000/svg" xmlns:xlink="http://www.w3.org/1999/xlink">
    <title>Group 31</title>
    <g id="MIS-UI" stroke="none" stroke-width="1" fill="none" fill-rule="evenodd">
        <g id="7.1.7a-My-Appraisals-Review-Form" transform="translate(-27.000000, -425.000000)" fill="#FFFFFF">
            <g id="Group-31" transform="translate(27.000000, 426.000000)">
                <g id="005-rating" transform="translate(0.000000, 11.916821)" fill-rule="nonzero">
                    <path d="M17.2917113,2.51957301 C16.8541757,2.237878 16.2962887,2.20892052 15.8325816,2.44232717 L12.5453598,4.08692606 L12.5453598,3.90821257 C12.5453598,3.04915342 11.907,2.35867652 11.0736151,2.35867652 L7.88987448,2.35867652 C7.24029289,2.35867652 6.57610042,2.2540647 5.9555523,2.05613678 L3.88152301,1.39659704 L3.88152301,0.534548983 C3.88152301,0.258987061 3.70510042,0.013780037 3.43781172,0.013780037 L0.533711297,0.013780037 C0.266422594,0.013780037 0.00937656904,0.259064695 0.00937656904,0.534548983 L0.00937656904,8.46754159 C0.00937656904,8.74310351 0.266422594,8.94460259 0.533711297,8.94460259 L3.43781172,8.94460259 C3.70510042,8.94460259 3.88152301,8.74310351 3.88152301,8.46754159 L3.88152301,7.66880407 L4.22777824,7.92790758 C5.10499582,8.65514418 6.22822594,9.04440111 7.35390377,9.04440111 L10.1513598,9.04440111 C11.1523556,9.04440111 12.1184435,8.74818854 12.9452385,8.16655453 L17.3422845,5.0785841 C17.7482259,4.79292976 17.9906234,4.32277819 17.9906234,3.81613863 C17.9906234,3.28419039 17.7292845,2.80130684 17.2917113,2.51957301 Z M2.91340167,7.94673383 L0.977309623,7.94673383 L0.977309623,1.01160998 L2.91336402,1.01160998 L2.91336402,7.94673383 L2.91340167,7.94673383 Z M16.7964477,4.25993346 L12.3994017,7.34227542 C11.7341172,7.81036969 10.956728,8.04649353 10.1512845,8.04649353 L7.35382845,8.04649353 C6.44799163,8.04649353 5.54027197,7.73545287 4.83443096,7.15028651 L3.8814477,6.38823105 L3.8814477,2.44116266 L5.66920921,3.00932717 C6.38254393,3.23695009 7.14310042,3.35654529 7.88979916,3.35654529 L11.0735774,3.35654529 C11.3731381,3.35654529 11.5772762,3.59938447 11.5772762,3.90821257 L11.5772762,4.5113512 C10.9964561,4.67488725 9.63730544,4.96461738 8.2614728,4.7364122 C7.99783682,4.69270425 7.75912971,4.8777061 7.71661506,5.14973567 C7.67417573,5.42180407 7.85861925,5.67780222 8.12251883,5.7215878 C8.54337238,5.79138078 8.96151464,5.81936784 9.35792887,5.81936784 C10.925887,5.81936784 12.1907448,5.38096858 12.2566067,5.35771719 C12.274569,5.35139002 12.2923808,5.34378189 12.3091381,5.33555268 C12.3103054,5.33497043 12.3118494,5.33462107 12.3130167,5.33403882 L16.2769707,3.33888355 C16.4411172,3.25631978 16.6240544,3.26614048 16.7788619,3.36582255 C16.9336318,3.46550462 17.0225021,3.63059335 17.0225021,3.81873937 C17.0225021,3.99551201 16.9379623,4.16036784 16.7964477,4.25993346 Z" id="Shape"></path>
                </g>
                <g id="006-moon" transform="translate(3.238494, 0.000000)">
                    <path d="M11.3729441,7.47315083 C11.193844,7.32572384 10.9414737,7.32288244 10.7592351,7.46639667 C9.95547502,8.09975046 8.99481048,8.43450055 7.98103912,8.43450055 C7.70516361,8.43450055 7.4286333,8.40888133 7.1591252,8.35838817 C7.05162452,8.33817227 6.94875262,8.41174603 6.92924399,8.52260739 C6.90971278,8.63342218 6.98099605,8.73960222 7.08845157,8.75972495 C7.38121649,8.81459667 7.68152295,8.84240518 7.98101654,8.84240518 C9.08230578,8.84240518 10.1259949,8.47868207 10.9992319,7.79057301 C11.0369395,7.76085471 11.0891432,7.76146026 11.1262186,7.79194713 C11.1632714,7.8224573 11.1753514,7.87483697 11.1556396,7.91932126 C10.7250724,8.8903597 10.0386351,9.71376155 9.17056878,10.3004651 C8.27967469,10.9025401 7.24336906,11.220824 6.17373618,11.220824 C3.15445962,11.220824 0.698088316,8.68712939 0.698088316,5.57280998 C0.698088316,4.4694366 1.00663626,3.40053272 1.59035975,2.48166433 C2.15915824,1.58622588 2.95740891,0.878203697 3.89892609,0.434059519 C3.94200765,0.413703882 3.9926759,0.426210721 4.02225495,0.464453235 C4.05181143,0.502672458 4.05242107,0.556519409 4.0236323,0.595367468 C3.35650038,1.49623253 3.00387739,2.5727756 3.00387739,3.70863882 C3.00387739,4.80863512 3.33766914,5.85823142 3.96919329,6.74400444 C4.587802,7.61165767 5.43572743,8.24803919 6.42131966,8.58432643 C6.52507215,8.61963438 6.63684034,8.56164177 6.67116108,8.45473974 C6.70543666,8.34779113 6.64919129,8.23238817 6.54552912,8.19703364 C4.66369147,7.55499261 3.39935615,5.75125952 3.39935615,3.70866211 C3.39935615,2.66304843 3.72391291,1.67212015 4.33791542,0.842988909 C4.47707246,0.655083549 4.47434035,0.394792237 4.33132222,0.209984473 C4.18823636,0.0250602588 3.94261729,-0.0351914972 3.73434461,0.0631630314 C2.72506655,0.539261368 1.86928348,1.29828909 1.25957106,2.25807837 C0.633511139,3.24355675 0.302609555,4.3897841 0.302609555,5.57280998 C0.302609555,8.91206617 2.93641004,11.6287519 6.17373618,11.6287519 C7.32059072,11.6287519 8.43183749,11.287434 9.38733134,10.6416665 C10.3178072,10.0127612 11.0536935,9.13006248 11.51533,8.08899039 C11.6106377,7.87397523 11.5521344,7.62074085 11.3729441,7.47315083 Z" id="Path" stroke="#FFFFFF" stroke-width="0.5"></path>
                    <path d="M5.67768863,3.68183179 C6.14487967,3.68183179 6.52500441,4.07389908 6.52500441,4.55579667 C6.52500441,4.6684281 6.61353837,4.75974898 6.7227325,4.75974898 C6.83192664,4.75974898 6.92046059,4.6684281 6.92046059,4.55579667 C6.92046059,4.07389908 7.30056276,3.68183179 7.7677538,3.68183179 C7.87694794,3.68183179 7.96548189,3.59051091 7.96548189,3.47787948 C7.96548189,3.36524806 7.87694794,3.27392717 7.7677538,3.27392717 C7.30056276,3.27392717 6.92046059,2.8818366 6.92046059,2.399939 C6.92046059,2.28730758 6.83192664,2.19598669 6.7227325,2.19598669 C6.61353837,2.19598669 6.52500441,2.28730758 6.52500441,2.399939 C6.52500441,2.8818366 6.14487967,3.27392717 5.67768863,3.27392717 C5.56849449,3.27392717 5.47996054,3.36524806 5.47996054,3.47787948 C5.47996054,3.59051091 5.56849449,3.68183179 5.67768863,3.68183179 Z M6.7227325,3.09303216 C6.81907894,3.24707357 6.9464721,3.37847689 7.09581247,3.47787948 C6.9464721,3.57725878 6.81910152,3.70866211 6.7227325,3.86270351 C6.62638606,3.70866211 6.49897033,3.57728207 6.34962996,3.47787948 C6.49897033,3.37850018 6.62638606,3.24707357 6.7227325,3.09303216 Z" id="Shape" fill-rule="nonzero"></path>
                    <path d="M8.47640929,6.30456488 C8.81559753,6.30456488 9.09156335,6.0199353 9.09156335,5.67009316 C9.09156335,5.32022773 8.81559753,5.03557486 8.47640929,5.03557486 C8.13722105,5.03557486 7.86127781,5.32022773 7.86127781,5.67009316 C7.86132297,6.0199353 8.13724363,6.30456488 8.47640929,6.30456488 Z M8.47640929,5.44352606 C8.59752537,5.44352606 8.69608459,5.54516451 8.69608459,5.67011645 C8.69608459,5.79502181 8.59754795,5.89666026 8.47640929,5.89666026 C8.35527063,5.89666026 8.25675657,5.7950451 8.25675657,5.67011645 C8.25677915,5.54516451 8.35529321,5.44352606 8.47640929,5.44352606 Z" id="Shape" fill-rule="nonzero"></path>
                    <path d="M0.913360625,10.0326743 C0.57417239,10.0326743 0.298229145,10.3173039 0.298229145,10.6671693 C0.298229145,11.0170348 0.57417239,11.3016876 0.913360625,11.3016876 C1.25254886,11.3016876 1.52849211,11.0170348 1.52849211,10.6671693 C1.52849211,10.3173039 1.25254886,10.0326743 0.913360625,10.0326743 Z M0.913360625,10.8937364 C0.792244549,10.8937364 0.693707906,10.792098 0.693707906,10.667146 C0.693707906,10.5421941 0.792244549,10.4406022 0.913360625,10.4406022 C1.0344767,10.4406022 1.13301334,10.5422174 1.13301334,10.6671693 C1.13301334,10.792098 1.03449928,10.8937364 0.913360625,10.8937364 Z" id="Shape" fill-rule="nonzero"></path>
                    <ellipse id="Oval" cx="6.72270992" cy="5.92595933" rx="1" ry="1"></ellipse>
                    <ellipse id="Oval" cx="0.24789959" cy="8.99630684" rx="1" ry="1"></ellipse>
                    <ellipse id="Oval" cx="8.31248261" cy="1.97349538" rx="1" ry="1"></ellipse>
                </g>
            </g>
        </g>
    </g>
</svg>