<svg width="17" height="16" viewBox="0 0 17 16" fill="none" xmlns="http://www.w3.org/2000/svg">
<path fill-rule="evenodd" clip-rule="evenodd" d="M3.86089 4.70588H1.13911C0.511001 4.70588 0 4.22494 0 3.63378V1.0721C0 0.480942 0.511001 0 1.13911 0H3.86089C4.489 0 5 0.480942 5 1.0721V3.63378C5 4.22494 4.489 4.70588 3.86089 4.70588ZM1.45675 1.17647C1.34249 1.17647 1.25 1.26352 1.25 1.37106V3.33483C1.25 3.44236 1.34249 3.52941 1.45675 3.52941H3.54325C3.65751 3.52941 3.75 3.44236 3.75 3.33483V1.37106C3.75 1.26352 3.65751 1.17647 3.54325 1.17647H1.45675Z" fill="#727273"/>
<path fill-rule="evenodd" clip-rule="evenodd" d="M3.86089 10.3529H1.13911C0.511001 10.3529 0 9.87191 0 9.28076V6.71907C0 6.12791 0.511001 5.64697 1.13911 5.64697H3.86089C4.489 5.64697 5 6.12791 5 6.71907V9.28076C5 9.87191 4.489 10.3529 3.86089 10.3529ZM1.45675 6.82344C1.34249 6.82344 1.25 6.91049 1.25 7.01803V8.9818C1.25 9.08933 1.34249 9.17638 1.45675 9.17638H3.54325C3.65751 9.17638 3.75 9.08933 3.75 8.9818V7.01803C3.75 6.91049 3.65751 6.82344 3.54325 6.82344H1.45675Z" fill="#727273"/>
<path fill-rule="evenodd" clip-rule="evenodd" d="M3.86089 15.9998H1.13911C0.511001 15.9998 0 15.5189 0 14.9277V12.366C0 11.7749 0.511001 11.2939 1.13911 11.2939H3.86089C4.489 11.2939 5 11.7749 5 12.366V14.9277C5 15.5189 4.489 15.9998 3.86089 15.9998ZM1.45675 12.4704C1.34249 12.4704 1.25 12.5575 1.25 12.665V14.6288C1.25 14.7363 1.34249 14.8234 1.45675 14.8234H3.54325C3.65751 14.8234 3.75 14.7363 3.75 14.6288V12.665C3.75 12.5575 3.65751 12.4704 3.54325 12.4704H1.45675Z" fill="#727273"/>
<path fill-rule="evenodd" clip-rule="evenodd" d="M8 2.35291H16H8Z" fill="#727273"/>
<path d="M8 2.35291H16" stroke="#727273" stroke-linecap="round"/>
<path d="M8 7.99989H16" stroke="#727273" stroke-linecap="round"/>
<path d="M8 13.6469H16" stroke="#727273" stroke-linecap="round"/>
</svg>
