<svg xmlns="http://www.w3.org/2000/svg" viewBox="0 0 86.77 36.9"><defs><style>.cls-1{fill:#fff;}</style></defs><title>Asset 2</title><g id="Layer_2" data-name="Layer 2"><g id="Layer_1-2" data-name="Layer 1"><rect class="cls-1" x="10.06" y="4.75" width="6.15" height="27.4" transform="translate(6.04 -3.06) rotate(17.2)"/><circle class="cls-1" cx="20.13" cy="6.15" r="6.15"/><circle class="cls-1" cx="6.15" cy="30.75" r="6.15"/><rect class="cls-1" x="27.4" y="4.75" width="6.15" height="27.4" transform="translate(6.82 -8.19) rotate(17.2)"/><circle class="cls-1" cx="37.46" cy="6.15" r="6.15"/><circle class="cls-1" cx="23.48" cy="30.75" r="6.15"/><rect class="cls-1" x="44.73" y="4.75" width="6.15" height="27.4" transform="translate(7.6 -13.31) rotate(17.2)"/><circle class="cls-1" cx="54.79" cy="6.15" r="6.15"/><circle class="cls-1" cx="40.82" cy="30.75" r="6.15"/><circle class="cls-1" cx="72.13" cy="6.15" r="6.15"/><path class="cls-1" d="M69.43,15,63.54,34a3.08,3.08,0,0,1-3.85,2h0a3.08,3.08,0,0,1-2-3.85l6.58-21.22A9.28,9.28,0,0,0,69.43,15Z"/><path class="cls-1" d="M86.77,33a3,3,0,0,1-2.17,2.9,3.18,3.18,0,0,1-.91.13H72.13a3.68,3.68,0,0,1-2.32-.77,2.41,2.41,0,0,1-1-1.88c0-1.47,1.47-2.66,3.28-2.66h7.62l-4.6-14.63-.29-.92a9.26,9.26,0,0,0,5.19-4l6.14,19.53.44,1.38A3.13,3.13,0,0,1,86.77,33Z"/></g></g></svg>