<svg xmlns="http://www.w3.org/2000/svg" viewBox="0 0 186.1 79.15"><defs><style>.cls-1{fill:#fff;}</style></defs><title>Asset 4</title><g id="Layer_2" data-name="Layer 2"><g id="Layer_1-2" data-name="Layer 1"><rect class="cls-1" x="21.59" y="10.19" width="13.19" height="58.76" transform="translate(12.96 -6.56) rotate(17.2)"/><circle class="cls-1" cx="43.17" cy="13.19" r="13.19"/><circle class="cls-1" cx="13.19" cy="65.96" r="13.19"/><rect class="cls-1" x="58.76" y="10.19" width="13.19" height="58.76" transform="translate(14.63 -17.56) rotate(17.2)"/><circle class="cls-1" cx="80.35" cy="13.19" r="13.19"/><circle class="cls-1" cx="50.37" cy="65.96" r="13.19"/><rect class="cls-1" x="95.94" y="10.19" width="13.19" height="58.76" transform="translate(16.29 -28.55) rotate(17.2)"/><circle class="cls-1" cx="117.53" cy="13.19" r="13.19"/><circle class="cls-1" cx="87.54" cy="65.96" r="13.19"/><circle class="cls-1" cx="154.7" cy="13.19" r="13.19"/><path class="cls-1" d="M148.92,32.12,136.28,72.89A6.6,6.6,0,0,1,128,77.24h0A6.6,6.6,0,0,1,123.68,69l14.11-45.5A19.85,19.85,0,0,0,148.92,32.12Z"/><path class="cls-1" d="M186.1,70.85a6.52,6.52,0,0,1-4.65,6.21,7,7,0,0,1-1.95.29H154.7a7.9,7.9,0,0,1-5-1.67,5.2,5.2,0,0,1-2.06-4c0-3.14,3.16-5.69,7-5.69h16.35l-9.87-31.39-.63-2a19.82,19.82,0,0,0,11.14-8.53L184.87,66l.93,3A6.47,6.47,0,0,1,186.1,70.85Z"/></g></g></svg>