<svg xmlns="http://www.w3.org/2000/svg" viewBox="0 0 84.14 36.56"><defs><style>.cls-1{fill:#fff;}</style></defs><title>Asset 3</title><g id="Layer_2" data-name="Layer 2"><g id="Layer_1-2" data-name="Layer 1"><rect class="cls-1" x="0.02" y="11.86" width="9.25" height="24.7"/><rect class="cls-1" x="14.84" y="11.86" width="9.25" height="24.7"/><rect class="cls-1" x="29.97" y="11.86" width="9.25" height="24.7"/><rect class="cls-1" x="44.94" y="11.89" width="9.25" height="24.67"/><path class="cls-1" d="M69.17,0h0a0,0,0,0,1,0,0V18.5a0,0,0,0,1,0,0H59.92a0,0,0,0,1,0,0V9.25A9.25,9.25,0,0,1,69.17,0Z"/><path class="cls-1" d="M74.89,18.06h9.25a0,0,0,0,1,0,0v9.25a9.25,9.25,0,0,1-9.25,9.25h0a0,0,0,0,1,0,0V18.06A0,0,0,0,1,74.89,18.06Z"/><rect class="cls-1" x="44.94" width="9.25" height="8.81"/><rect class="cls-1" width="39.25" height="8.81"/><path class="cls-1" d="M74.89,0h.44a8.81,8.81,0,0,1,8.81,8.81v0a0,0,0,0,1,0,0H74.89a0,0,0,0,1,0,0V0A0,0,0,0,1,74.89,0Z"/><path class="cls-1" d="M59.92,27.75h9.25a0,0,0,0,1,0,0v8.81a0,0,0,0,1,0,0h-.44a8.81,8.81,0,0,1-8.81-8.81v0A0,0,0,0,1,59.92,27.75Z"/></g></g></svg>