<svg xmlns="http://www.w3.org/2000/svg" viewBox="0 0 180.47 78.41"><defs><style>.cls-1{fill:#fff;}</style></defs><title>Asset 5</title><g id="Layer_2" data-name="Layer 2"><g id="Layer_1-2" data-name="Layer 1"><rect class="cls-1" x="0.03" y="25.43" width="19.84" height="52.98"/><rect class="cls-1" x="31.84" y="25.43" width="19.84" height="52.98"/><rect class="cls-1" x="64.27" y="25.43" width="19.84" height="52.98"/><rect class="cls-1" x="96.39" y="25.51" width="19.84" height="52.9"/><path class="cls-1" d="M142.13,0h6.22a0,0,0,0,1,0,0V39.68a0,0,0,0,1,0,0H128.51a0,0,0,0,1,0,0V13.62A13.62,13.62,0,0,1,142.13,0Z"/><path class="cls-1" d="M160.63,38.73h19.84a0,0,0,0,1,0,0V64.79a13.62,13.62,0,0,1-13.62,13.62h-6.22a0,0,0,0,1,0,0V38.73A0,0,0,0,1,160.63,38.73Z"/><rect class="cls-1" x="96.39" width="19.84" height="18.89"/><rect class="cls-1" width="84.18" height="18.89"/><path class="cls-1" d="M160.63,0h6.87a13,13,0,0,1,13,13v5.92a0,0,0,0,1,0,0H160.63a0,0,0,0,1,0,0V0A0,0,0,0,1,160.63,0Z"/><path class="cls-1" d="M128.51,59.52h19.84a0,0,0,0,1,0,0V78.41a0,0,0,0,1,0,0h-6.87a13,13,0,0,1-13-13V59.52A0,0,0,0,1,128.51,59.52Z"/></g></g></svg>