<?xml version="1.0" encoding="UTF-8"?>
<svg width="19px" height="19px" viewBox="0 0 19 19" version="1.1" xmlns="http://www.w3.org/2000/svg" xmlns:xlink="http://www.w3.org/1999/xlink">
    <title>007-pendrive</title>
    <g id="MIS-UI" stroke="none" stroke-width="1" fill="none" fill-rule="evenodd">
        <g id="7.1.7a-My-Appraisals-Review-Form" transform="translate(-27.000000, -470.000000)" fill="#FFFFFF">
            <g id="007-pendrive" transform="translate(27.000000, 470.000000)">
                <path d="M15.5335907,0.412440031 C14.9879589,-0.13309702 14.1043329,-0.13309702 13.5585554,0.412440031 L11.0790075,2.89701494 L10.5155866,2.33263105 C10.333758,2.15044446 10.0390702,2.15044446 9.85738735,2.33263105 L0.719149067,11.4882736 C-0.189994177,12.3992064 -0.189994177,13.8759843 0.719149067,14.7866249 L4.22682343,18.3012042 C5.13654992,19.210676 6.60911409,19.210676 7.51869474,18.3012042 L16.6564956,9.14541553 C16.8383242,8.96322898 16.8383242,8.66781496 16.6564956,8.48577446 L16.0933663,7.92139057 L18.5729141,5.43666954 C19.1173793,4.8898176 19.1173793,4.00474441 18.5729141,3.45774638 L15.5335907,0.412440031 Z M6.86034963,17.6417092 C6.31442626,18.1872462 5.43109192,18.1872462 4.88516854,17.6417092 L1.37763998,14.1269839 C0.832883104,13.5802781 0.832883104,12.6949126 1.37763998,12.1480607 L3.63365668,9.88731085 L9.11636633,15.3811055 L6.86034963,17.6417092 Z M9.77485725,14.7213183 L4.29200179,9.22781587 L10.1863412,3.32201954 L15.6690508,8.81537584 L9.77485725,14.7213183 Z M17.914569,4.77688238 L15.4348754,7.26145733 L11.7372068,3.55650991 L14.2169005,1.07164279 C14.3987291,0.889748382 14.6932711,0.889748382 14.8750998,1.07164279 L17.914569,4.11753354 C18.0958144,4.29972012 18.0958144,4.5946958 17.914569,4.77688238 Z" id="Shape" fill-rule="nonzero"></path>
                <polygon id="Path" points="13.7556944 3.14202446 14.3024926 2.59414985 14.9609835 3.25393701 14.4141853 3.80151944"></polygon>
                <polygon id="Path" points="15.1903472 4.57935531 15.7371455 4.03148067 16.3956364 4.69112173 15.8488381 5.23899638"></polygon>
            </g>
        </g>
    </g>
</svg>