<?xml version="1.0" encoding="UTF-8"?>
<svg width="16px" height="16px" viewBox="0 0 16 16" version="1.1" xmlns="http://www.w3.org/2000/svg" xmlns:xlink="http://www.w3.org/1999/xlink">
    <title>005-policy</title>
    <g id="MIS-UI" stroke="none" stroke-width="1" fill="none" fill-rule="evenodd">
        <g id="7.1.7a-My-Appraisals-Review-Form" transform="translate(-29.000000, -854.000000)" fill="#FFFFFF" fill-rule="nonzero">
            <g id="005-policy" transform="translate(29.000000, 854.000000)">
                <path d="M12.0000313,9 L12.0000313,1.66665625 C11.9989375,0.74665625 11.253375,0.00109375 10.333375,0 L3.00003125,0 C2.911625,0 2.826875,0.03515625 2.764375,0.09765625 L0.0976875,2.76434375 C0.0351875,2.82684375 3.125e-05,2.911625 3.125e-05,3 L3.125e-05,14.3333437 C0.001125,15.2533438 0.7466875,15.9989062 1.6666875,16 L10.3333437,16 C11.253375,15.9989062 11.9989062,15.2533437 12.0000313,14.3333438 L12.0000313,13.6666875 L11.3333437,13.6666875 L11.3333437,14.3333438 C11.3333437,14.885625 10.885625,15.3333438 10.3333437,15.3333438 L1.6666875,15.3333438 C1.11440625,15.3333438 0.6666875,14.885625 0.6666875,14.3333438 L0.6666875,3.138 L3.13803125,0.66665625 L10.333375,0.66665625 C10.8856562,0.66665625 11.333375,1.114375 11.333375,1.66665625 L11.333375,9 L12.0000313,9 Z" id="Shape"></path>
                <path d="M2.6666875,0.33334375 L2.6666875,2.33334375 C2.6666875,2.5174375 2.5174375,2.6666875 2.33334375,2.6666875 L1.6666875,2.6666875 L1.6666875,3.33334375 L2.33334375,3.33334375 C2.885625,3.33334375 3.33334375,2.885625 3.33334375,2.33334375 L3.33334375,0.33334375 L2.6666875,0.33334375 Z" id="Shape"></path>
                <path d="M15.902375,8.02065625 L14.979375,7.09765625 C14.8492187,6.96753125 14.6382187,6.96753125 14.5080312,7.09765625 L9.43103125,12.1746562 C9.30090625,12.3048125 9.30090625,12.5158125 9.43103125,12.646 L10.3540312,13.569 C10.4165312,13.6315312 10.5013125,13.6666562 10.5896875,13.6666562 C10.6780937,13.6666562 10.7628437,13.6315 10.8253437,13.569 L15.9023437,8.492 C16.0325,8.36184375 16.0325,8.15084375 15.902375,8.02065625 Z M10.5896875,12.862 L10.1380312,12.4103437 L14.7436875,7.8046875 L15.1953437,8.25634375 L10.5896875,12.862 Z" id="Shape"></path>
                <path d="M10.0000312,13 L10.0000312,12.3333437 L9.333375,12.3333437 L9.333375,13.3333437 C9.333375,13.5174375 9.482625,13.6666875 9.66671875,13.6666875 L10.6667187,13.6666875 L10.6667187,13 L10.0000312,13 Z" id="Shape"></path>
                <path d="M9.6666875,1.33334375 L9.00003125,1.33334375 L9.00003125,2 L9.6666875,2 C9.85078125,2 10.0000312,2.14925 10.0000312,2.33334375 L10.0000312,3 L10.6666875,3 L10.6666875,2.33334375 C10.6667187,1.7810625 10.219,1.33334375 9.6666875,1.33334375 Z" id="Shape"></path>
                <path d="M8.6666875,4.66665625 L3.333375,4.66665625 C3.14928125,4.66665625 3.0000306,4.81590625 3.0000306,5 L3.0000306,9.66665625 C2.99978125,9.794125 3.07221875,9.9105625 3.1866875,9.96665625 L5.50503125,11.1 C5.65734375,11.187 5.829625,11.2329688 6.00503125,11.2333633 L6.00503125,11.2333633 C6.1704375,11.2344062 6.33328125,11.19225 6.477375,11.111 L8.813375,9.96665625 C8.92784375,9.9105625 9.0003125,9.794125 9.0000306,9.66665625 L9.0000306,5 C9.0000306,4.81590625 8.85078125,4.66665625 8.6666875,4.66665625 Z M8.333375,9.45865625 L6.165375,10.5216562 C6.05565625,10.5815625 5.92215625,10.5777187 5.81603125,10.5116562 L3.6666875,9.45865625 L3.6666875,5.33334375 L8.333375,5.33334375 L8.333375,9.45865625 L8.333375,9.45865625 Z" id="Shape"></path>
                <path d="M7.43103125,6.48165625 L5.6666875,8.246 L4.90234375,7.48165625 L4.431,7.953 L5.431,8.953 C5.4935,9.0155 5.57828125,9.05065625 5.66665625,9.05065625 C5.7550625,9.050625 5.8398125,9.0155 5.9023125,8.953 L7.9023125,6.953 L7.43103125,6.48165625 Z" id="Shape"></path>
                <path d="M6.6666875,13 C6.48259375,13 6.33334375,12.85075 6.33334375,12.6666562 L6.33334375,12 L5.6666875,12 L5.6666875,12.6666562 C5.6666875,13.2189375 6.11440625,13.6666562 6.6666875,13.6666562 L8.6666875,13.6666562 L8.6666875,13 L6.6666875,13 Z" id="Shape"></path>
                <polygon id="Rectangle-path" points="7.6666875 1.33334375 8.33334375 1.33334375 8.33334375 2 7.6666875 2"></polygon>
            </g>
        </g>
    </g>
</svg>