<?xml version="1.0" encoding="UTF-8"?>
<svg width="19px" height="20px" viewBox="0 0 19 20" version="1.1" xmlns="http://www.w3.org/2000/svg" xmlns:xlink="http://www.w3.org/1999/xlink">
    <title>001-project</title>
    <g id="MIS-UI" stroke="none" stroke-width="1" fill="none" fill-rule="evenodd">
        <g id="7.1.7a-My-Appraisals-Review-Form" transform="translate(-27.000000, -557.000000)" fill="#FFFFFF">
            <g id="001-project" transform="translate(27.000000, 557.000000)">
                <path d="M17.3821787,11.6468616 C16.9386511,10.9650682 16.2880085,10.4499025 15.5296723,10.180117 L15.5296723,1.24756335 C15.5296723,0.558557505 14.9809787,0 14.3041404,0 L5.70090638,0 C5.66613191,0.00245614035 5.63181702,0.00943469786 5.59876596,0.0207797271 L5.55790213,0.0207797271 C5.51389787,0.0411306043 5.4737617,0.0693177388 5.43944681,0.103937622 L0.128834043,5.51005848 C0.094787234,5.54502924 0.0671361702,5.58584795 0.0471446809,5.63064327 L0.0471446809,5.66807018 C0.0356553191,5.70304094 0.0288,5.73937622 0.0267319149,5.77617934 L0.00631914894,5.82191033 L0.00631914894,18.7134503 C0.00631914894,19.4024561 0.555012766,19.9610516 1.23185106,19.9610516 L12.6701617,19.9610516 C12.7580936,19.9622222 12.844034,19.9345029 12.9152681,19.8819883 L14.304217,18.8173879 L15.693166,19.8778168 C15.7638638,19.9318129 15.8498809,19.9610516 15.9382723,19.9610516 C16.1638851,19.9610516 16.3467957,19.7747758 16.3467957,19.5451072 L16.3467957,16.8337232 C18.0396766,15.6925146 18.5032723,13.3702534 17.3821787,11.6468616 Z M5.31693191,1.41805068 L5.31693191,4.15851852 C5.31693191,4.84752437 4.7682383,5.40608187 4.0914,5.40608187 L1.39928936,5.40608187 L5.31693191,1.41805068 Z M12.2616,19.1293177 L1.23181277,19.1293177 C1.0062,19.1293177 0.823289362,18.9431189 0.823289362,18.7134503 L0.823289362,6.23781676 L4.0913617,6.23781676 C5.21942553,6.23781676 6.13390213,5.30690058 6.13390213,4.1585575 L6.13390213,0.831695906 L14.3041021,0.831695906 C14.5297149,0.831695906 14.7126255,1.01789474 14.7126255,1.24756335 L14.7126255,10.0054581 C13.7385957,9.89103314 12.7604298,10.1819493 12.0001021,10.8122027 L9.40197447,8.54163743 L9.40197447,5.40608187 L10.6275064,5.40608187 L10.6275064,2.07925926 L7.35943404,2.07925926 L7.35943404,5.40608187 L8.58496596,5.40608187 L8.58496596,8.73294347 C8.58496596,8.85450292 8.63720426,8.96998051 8.72793191,9.04900585 L11.4445149,11.402729 C11.2863064,11.6067057 11.1493915,11.8269006 11.0359915,12.0597661 L4.0914,12.0597661 L4.0914,10.8122027 L5.31693191,10.8122027 L5.31693191,7.48538012 L2.04882128,7.48538012 L2.04882128,10.8122027 L3.27435319,10.8122027 L3.27435319,12.4756335 C3.27435319,12.7053021 3.45726383,12.891501 3.6828766,12.891501 L10.7215277,12.891501 C10.6597532,13.1642885 10.628234,13.4432749 10.627583,13.7231969 C10.627583,13.7897466 10.627583,13.8521248 10.627583,13.9186355 L8.04580851,15.8024561 L5.25975319,15.8024561 C5.03414043,14.9129435 4.14287234,14.3780507 3.26910638,14.6077193 C2.39530213,14.8373879 1.86985532,15.7446784 2.09546809,16.634152 C2.32108085,17.5236647 3.21234894,18.0585575 4.08615319,17.8288889 C4.66173191,17.6776218 5.11119574,17.220078 5.25979149,16.634152 L8.17655745,16.634152 C8.26169362,16.6336062 8.34453191,16.6059649 8.41350638,16.5551267 L10.7910383,14.8251852 C11.0400511,15.6467836 11.5593702,16.3560624 12.2616766,16.8337622 L12.2616766,19.1293177 L12.2616,19.1293177 Z M8.17648085,4.57438596 L8.17648085,2.91099415 L9.81053617,2.91099415 L9.81053617,4.57442495 L8.17648085,4.57442495 L8.17648085,4.57438596 Z M2.86586809,9.98050682 L2.86586809,8.31707602 L4.4999234,8.31707602 L4.4999234,9.98050682 L2.86586809,9.98050682 Z M4.49988511,16.2183236 C4.49988511,16.6776608 4.13410213,17.0500195 3.6828766,17.0500195 C3.23165106,17.0500195 2.86586809,16.6776608 2.86586809,16.2183236 C2.86586809,15.7589864 3.23165106,15.3866277 3.6828766,15.3866277 C4.13410213,15.3866277 4.49988511,15.7589864 4.49988511,16.2183236 Z M15.5296723,18.7134503 L14.5492468,17.9649123 C14.403983,17.8540351 14.2042979,17.8540351 14.059034,17.9649123 L13.0786085,18.7134503 L13.0786085,17.2454971 C13.8705702,17.5367251 14.7377106,17.5367251 15.5296723,17.2454971 L15.5296723,18.7134503 L15.5296723,18.7134503 Z M14.3041404,16.634191 C12.7248511,16.634191 11.4445532,15.3309162 11.4445532,13.7231969 C11.4445532,12.1155166 12.7248128,10.8122027 14.3041404,10.8122027 C15.8834681,10.8122027 17.1637277,12.1154776 17.1637277,13.7231969 C17.1637277,15.3308772 15.8834298,16.634191 14.3041404,16.634191 Z" id="Shape" fill-rule="nonzero"></path>
                <path d="M13.8956553,13.968538 L12.9601532,13.0162183 L12.3841532,13.6025731 L13.6096851,14.8501365 C13.7690043,15.011384 14.026366,15.011384 14.1856851,14.8501365 L16.2282255,12.7708772 L15.6522255,12.1845224 L13.8956553,13.968538 Z" id="Path"></path>
            </g>
        </g>
    </g>
</svg>