<?xml version="1.0" encoding="UTF-8"?>
<svg width="16px" height="20px" viewBox="0 0 16 20" version="1.1" xmlns="http://www.w3.org/2000/svg" xmlns:xlink="http://www.w3.org/1999/xlink">
    <title>003-statistics</title>
    <g id="MIS-UI" stroke="none" stroke-width="1" fill="none" fill-rule="evenodd">
        <g id="7.1.7a-My-Appraisals-Review-Form" transform="translate(-27.000000, -642.000000)" fill="#FFFFFF" fill-rule="nonzero">
            <g id="003-statistics" transform="translate(27.000000, 642.000000)">
                <path d="M2.94320988,8.91157315 L8.2007716,8.91157315 C8.37530864,8.91157315 8.51604938,8.7877317 8.51604938,8.61065884 L8.51604938,7.91708417 C8.51527779,7.55135271 8.37067899,7.201121 8.11435184,6.94388778 C7.85802469,6.68665455 7.51126542,6.54371242 7.1507716,6.54684369 L6.69876543,6.54684369 L6.69876543,6.04177106 C7.14660496,5.68465054 7.40864198,5.13918461 7.40987654,4.56115355 L7.40987654,4.18540204 C7.43441359,4.18868986 7.45925926,4.18994236 7.48410493,4.18915956 C7.87037037,4.18962926 8.22345679,3.96730962 8.39444444,3.61566886 C8.56558641,3.26418461 8.52469136,2.84459543 8.28935186,2.53366108 C8.05401237,2.22288329 7.66496913,2.07477455 7.28611113,2.15164705 C7.16805555,2.17497495 7.05478396,2.21849948 6.95108026,2.28018537 C6.45030866,1.67882641 5.63194445,1.45963804 4.9037037,1.73174473 C4.17546295,2.00400802 3.69290121,2.70932489 3.6962963,3.49668088 L3.6962963,4.56146669 C3.6962963,5.1867798 3.97283951,5.74304858 4.44691358,6.09187126 L4.44691358,6.54684369 L3.99320988,6.54684369 C3.63287036,6.54386898 3.28626544,6.68681114 3.03024691,6.94404433 C2.77422839,7.20127756 2.6300926,7.55150926 2.62962963,7.91708417 L2.62962963,8.61065884 C2.62962963,8.7877317 2.76867283,8.91157315 2.94320988,8.91157315 Z M7.88395062,7.91708417 L7.88395062,8.27029058 L5.8691358,8.27029058 L5.8691358,7.56231214 L6.48333333,7.18812625 L7.1507716,7.18812625 C7.34367285,7.18483844 7.52978394,7.26014529 7.66759261,7.39713804 C7.80540124,7.53413074 7.88333333,7.72138028 7.88395062,7.91708417 Z M7.40694443,2.78118737 C7.50709879,2.75942509 7.6117284,2.78009142 7.69660492,2.83848946 C7.78040122,2.89735719 7.83750001,2.9878507 7.85524693,3.08977331 C7.8763889,3.19044337 7.85694443,3.29549723 7.80092595,3.38129383 C7.70910495,3.51499876 7.52839506,3.57214429 7.40987654,3.53848321 L7.40987654,3.49668088 C7.40709879,3.26950778 7.36373456,3.04483968 7.28163579,2.83332289 C7.32006171,2.80842934 7.36234568,2.79073772 7.40694443,2.78118737 Z M5.54444444,2.25764028 C5.89212962,2.25764028 6.22299382,2.40903683 6.45324073,2.67331539 C6.33132717,2.6626691 6.21435184,2.7241984 6.15246914,2.83128758 C5.91080249,3.25463427 5.50524689,3.49464553 4.93811729,3.54427607 C4.73487652,3.56087174 4.53040122,3.55460922 4.3283911,3.5254885 L4.3283911,3.49668088 C4.32669752,2.81375251 4.87129632,2.25889279 5.54444444,2.25764028 Z M4.32839506,4.17178108 C4.458179,4.1869677 4.58873458,4.19463928 4.71944446,4.19479583 C4.80015431,4.19479583 4.88194445,4.19197772 4.96836421,4.18493234 C5.54475307,4.13858966 6.02870368,3.93333543 6.37947532,3.58451279 C6.48194445,3.74185872 6.61805555,3.873998 6.77777778,3.97075399 L6.77777778,4.56131014 C6.77777778,5.24940505 6.21512344,5.83072393 5.55308642,5.83072393 C4.8910494,5.83072393 4.32839506,5.2495616 4.32839506,4.56131014 L4.32839506,4.17178108 Z M5.54212962,6.47200649 C5.72021606,6.47310244 5.89722224,6.44523423 6.06666667,6.38965431 L6.06666667,6.67381639 L5.55709875,7.00369491 L5.07901235,6.67835671 L5.07901235,6.40765908 C5.22932101,6.45274926 5.38549381,6.4745115 5.54212962,6.47200649 Z M3.2617284,7.91708417 C3.26203702,7.72153683 3.33950617,7.53428733 3.47700618,7.39729459 C3.61450619,7.26030184 3.80046297,7.18483844 3.99320988,7.18812625 L4.65293211,7.18812625 L5.23703704,7.55777178 L5.23703704,8.27029058 L3.2617284,8.27029058 L3.2617284,7.91708417 Z" id="Shape"></path>
                <path d="M5.57206791,11.2922721 C8.64058643,11.2922721 11.1371913,8.75955034 11.1371913,5.64613603 C11.1371913,2.53287824 8.64058643,0 5.57206791,0 C2.50339508,0 0.00679012346,2.53287824 0.00679012346,5.64597948 C0.00679012346,8.75923723 2.50324073,11.2922721 5.57206791,11.2922721 Z M5.57206791,0.641439118 C8.29660492,0.641439118 10.5052469,2.88217058 10.5050926,5.64629259 C10.5050926,8.41041459 8.29645061,10.6511461 5.57191356,10.6509895 C2.84737655,10.6509895 0.638734578,8.41010144 0.638888889,5.64597948 C0.641975309,2.88326653 2.84876543,0.644413828 5.57206791,0.641282565 L5.57206791,0.641439118 Z" id="Shape"></path>
                <path d="M14.5279321,7.36097161 C14.0638889,7.36065884 13.6271605,7.58282188 13.349537,7.95998244 C13.0720679,8.3372996 12.9864198,8.82530685 13.1185185,9.2765218 L11.4155864,10.501002 C10.9350309,9.97870741 10.1569444,9.87584545 9.56049383,10.255511 C8.96404322,10.6353331 8.71697533,11.3909068 8.97145063,12.0569263 L7.38966048,13.4104146 C7.08024691,12.9255386 6.5226852,12.6656438 5.95848766,12.7432991 C5.39444444,12.8209544 4.92515433,13.2222257 4.75432099,13.7731713 L3.42484567,13.2264529 C3.31327162,12.4766721 2.66481481,11.9312062 1.91774692,11.9586047 C1.17083334,11.9861598 0.563117274,12.5778119 0.505246894,13.3338552 C0.447376553,14.0898986 0.957716069,14.7696956 1.69166665,14.9137337 C2.42546295,15.0579283 3.14907409,14.6206475 3.37345679,13.8973259 L4.70293211,14.4440443 C4.8219136,15.2484657 5.55416668,15.8078657 6.34891974,15.7015594 C7.14382716,15.595253 7.708179,14.862381 7.61759257,14.0542022 L9.32453705,12.5937813 C9.8109568,13.0686373 10.5535494,13.146136 11.1251543,12.7818136 C11.6966049,12.4174912 11.95,11.7048159 11.7391976,11.0542961 L13.4276235,9.84030561 C13.8759259,10.3543024 14.6120371,10.4914517 15.2111111,10.1726891 C15.8101852,9.85408317 16.1174383,9.16160445 15.9555556,8.49527178 C15.7936728,7.82893912 15.2044753,7.36081539 14.5280864,7.36097161 L14.5279321,7.36097161 Z M1.97098765,14.2995366 C1.50802469,14.2995366 1.13271605,13.9189316 1.13271605,13.4492422 C1.13271605,12.9795529 1.50802469,12.5987913 1.97098765,12.5987913 C2.43395062,12.5987913 2.80925926,12.9795529 2.80925926,13.4492422 C2.80864198,13.9186185 2.43364196,14.2990669 1.97098765,14.2995366 L1.97098765,14.2995366 Z M6.15663581,15.0715493 C5.69367285,15.0715493 5.31851852,14.6909444 5.31851852,14.221255 C5.31851852,13.7515656 5.69367285,13.3709607 6.15663581,13.3709607 C6.61959878,13.3709607 6.99475311,13.7517222 6.99475311,14.221255 C6.99429013,14.6907878 6.61929011,15.0710797 6.15663581,15.0715493 L6.15663581,15.0715493 Z M10.3422839,12.3692698 C9.87932097,12.3692698 9.50416668,11.9886648 9.50416668,11.5189755 C9.50416668,11.0492861 9.87932097,10.6686811 10.3422839,10.6686811 C10.8052469,10.6686811 11.1804012,11.0492861 11.1804012,11.5189755 C11.1799383,11.9883517 10.8049383,12.3688001 10.3422839,12.3692698 L10.3422839,12.3692698 Z M14.5279321,9.70299976 C14.0649691,9.70299976 13.6896605,9.32223824 13.6896605,8.85254886 C13.6896605,8.38285948 14.0649691,8.00209796 14.5277778,8.00209796 C14.9907407,8.00209796 15.3660494,8.38285948 15.3660494,8.85254886 C15.3655864,9.32192509 14.9905864,9.70237351 14.5279321,9.70299976 Z" id="Shape"></path>
                <path d="M15.8641975,11.9977455 C15.8641975,11.8206726 15.7226852,11.6771042 15.5481481,11.6771042 L13.4938272,11.6771042 C13.3192901,11.6771042 13.1777778,11.8206726 13.1777778,11.9977455 L13.1777778,19.6530561 C13.1777778,19.830129 13.3192901,19.9736974 13.4938272,19.9736974 L15.5481481,19.9736974 C15.7226852,19.9736974 15.8641975,19.830129 15.8641975,19.6530561 L15.8641975,11.9977455 Z M15.2320988,19.3324148 L13.8098765,19.3324148 L13.8098765,12.3183868 L15.2320988,12.3183868 L15.2320988,19.3324148 Z" id="Shape"></path>
                <path d="M11.6765432,14.6430361 C11.6765432,14.4659632 11.5350309,14.3223948 11.3604938,14.3223948 L9.30617284,14.3223948 C9.13163579,14.3223948 8.99012346,14.4659632 8.99012346,14.6430361 L8.99012346,19.6530561 C8.99012346,19.830129 9.13163579,19.9736974 9.30617284,19.9736974 L11.3604938,19.9736974 C11.5350309,19.9736974 11.6765432,19.830129 11.6765432,19.6530561 L11.6765432,14.6430361 Z M11.0444444,19.3324148 L9.62222222,19.3324148 L9.62222222,14.9636774 L11.0444444,14.9636774 L11.0444444,19.3324148 Z" id="Shape"></path>
                <path d="M7.48888889,17.368487 C7.48888889,17.1914141 7.34737655,17.0478457 7.17283951,17.0478457 L5.11851852,17.0478457 C4.94398147,17.0478457 4.80246914,17.1914141 4.80246914,17.368487 L4.80246914,19.6530561 C4.80246914,19.830129 4.94398147,19.9736974 5.11851852,19.9736974 L7.17283951,19.9736974 C7.34737655,19.9736974 7.48888889,19.830129 7.48888889,19.6530561 L7.48888889,17.368487 Z M6.85679012,19.3324148 L5.4345679,19.3324148 L5.4345679,17.6891283 L6.85679012,17.6891283 L6.85679012,19.3324148 Z" id="Shape"></path>
                <path d="M3.30123457,16.6069639 C3.30123457,16.429891 3.15972223,16.2863226 2.98518519,16.2863226 L0.930864198,16.2863226 C0.756327151,16.2863226 0.614814815,16.429891 0.614814815,16.6069639 L0.614814815,19.6530561 C0.614814815,19.830129 0.756327151,19.9736974 0.930864198,19.9736974 L2.98518519,19.9736974 C3.15972223,19.9736974 3.30123457,19.830129 3.30123457,19.6530561 L3.30123457,16.6069639 Z M2.6691358,19.3324148 L1.24691358,19.3324148 L1.24691358,16.9276052 L2.6691358,16.9276052 L2.6691358,19.3324148 Z" id="Shape"></path>
            </g>
        </g>
    </g>
</svg>