<?xml version="1.0" encoding="UTF-8"?>
<svg width="21px" height="21px" viewBox="0 0 21 21" version="1.1" xmlns="http://www.w3.org/2000/svg" xmlns:xlink="http://www.w3.org/1999/xlink">
    <title>004-sunbed</title>
    <g id="MIS-UI" stroke="none" stroke-width="1" fill="none" fill-rule="evenodd">
        <g id="7.1.7a-My-Appraisals-Review-Form" transform="translate(-27.000000, -381.000000)" fill="#FFFFFF">
            <g id="004-sunbed" transform="translate(27.000000, 381.000000)">
                <path d="M20.6071123,17.1143451 L7.1300894,17.1143451 L2.34261331,12.326869 C2.20858004,12.1881206 1.98749064,12.1842786 1.8487422,12.3183119 C1.70999376,12.4523451 1.70615177,12.6734345 1.84018503,12.812183 C1.84297921,12.8151081 1.84586071,12.8179459 1.8487422,12.8207401 L3.53083784,14.5028358 L1.57176923,17.1143451 L0.349316008,17.1143451 C0.156430353,17.1143451 4.36590437e-05,17.2707318 4.36590437e-05,17.4636175 C4.36590437e-05,17.6565031 0.156430353,17.8128898 0.349316008,17.8128898 L2.1417817,17.8128898 L0.407993763,20.4132225 C0.300941788,20.5737131 0.344251559,20.7906112 0.504742204,20.8976632 C0.665232848,21.0047152 0.882130977,20.9614054 0.989182952,20.8009148 L2.98108316,17.8128898 L7.33476299,17.8128898 L7.33476299,20.6070686 C7.33476299,20.7999543 7.49114969,20.9564186 7.68403534,20.9564186 C7.876921,20.9564186 8.03330769,20.7999543 8.03330769,20.6070686 L8.03330769,17.8128898 L17.6260728,17.8128898 L19.6169252,20.8009148 C19.7239771,20.9614054 19.9408753,21.0047152 20.1013659,20.8976632 C20.2618565,20.7906112 20.3051663,20.5737131 20.1981143,20.4132225 L18.4653742,17.8128898 L20.6071123,17.8128898 C20.7999979,17.8128898 20.9563846,17.6565031 20.9563846,17.4636175 C20.9563846,17.2707318 20.7999979,17.1143451 20.6071123,17.1143451 Z M2.4449501,17.1143451 L4.02959875,15.0015967 L6.14234719,17.1143451 L2.4449501,17.1143451 Z" id="Shape" fill-rule="nonzero"></path>
                <path d="M19.5592952,14.6694387 L8.52717879,14.6694387 L8.03330769,14.1755676 L8.03330769,7.12515593 C8.24151767,7.25997505 8.48382536,7.33266736 8.73185239,7.33471933 C9.01157588,7.33314761 9.28352807,7.24246778 9.50828482,7.07590852 C9.67065281,6.9599501 9.88868607,6.9599501 10.0510541,7.07590852 C10.5109584,7.42155717 11.1440146,7.42155717 11.6039189,7.07590852 C11.7662869,6.9599501 11.9843202,6.9599501 12.1466881,7.07590852 C12.6391622,7.44452183 13.3227318,7.41679834 13.7837277,7.00954678 C13.9035281,6.90952391 13.9708503,6.760079 13.9663971,6.60404158 C13.8427547,3.51612474 11.0967755,1.04781705 7.68403534,1.04781705 C3.93040541,1.04781705 1.50994802,3.51577547 1.40081593,6.60334304 C1.3970894,6.75968607 1.46454262,6.90930561 1.58434304,7.00989605 C1.82346362,7.21710187 2.12859667,7.33223077 2.4449501,7.33471933 C2.7246736,7.33314761 2.99662578,7.24246778 3.22138254,7.07590852 C3.38375052,6.9599501 3.60178378,6.9599501 3.76415177,7.07590852 C4.22405613,7.42155717 4.85711227,7.42155717 5.31701663,7.07590852 C5.47938462,6.9599501 5.69741788,6.9599501 5.85978586,7.07590852 C6.29139917,7.40300208 6.88228067,7.42273597 7.33476299,7.12515593 L7.33476299,13.47842 L4.78751975,10.9311767 C4.6511289,10.7948295 4.4300395,10.7948295 4.29364865,10.9311767 L3.2458316,11.9789938 C3.10948441,12.1153846 3.10948441,12.336474 3.2458316,12.4728649 L7.43709979,16.6641331 C7.50280665,16.7291414 7.59160915,16.765422 7.68403534,16.7650753 L19.5592952,16.7650753 C19.7521809,16.7650753 19.9085676,16.6086861 19.9085676,16.4158004 L19.9085676,15.018711 C19.9085676,14.8258254 19.7521809,14.6694387 19.5592952,14.6694387 Z M7.00155717,6.51113514 C6.89616424,6.59063825 6.76819958,6.63442827 6.6362183,6.63617464 C6.50423701,6.6342973 6.37631601,6.59050728 6.27087942,6.51113514 C5.86340956,6.21709148 5.31339293,6.21709148 4.90592308,6.51113514 C4.6909896,6.67813098 4.39017879,6.67813098 4.17524532,6.51113514 C3.76777547,6.21709148 3.21775884,6.21709148 2.81028898,6.51113514 C2.70489605,6.59063825 2.57693139,6.63442827 2.4449501,6.63617464 C2.32292308,6.63482121 2.20408316,6.59696881 2.10371102,6.52755094 C2.25459667,3.70717672 4.53464657,1.74636175 7.68403534,1.74636175 C10.6675198,1.74636175 13.0977568,3.83850312 13.2633119,6.52859875 C13.1630707,6.59740541 13.0446674,6.63482121 12.9231206,6.63617464 C12.7911393,6.6342973 12.6632183,6.59050728 12.5577817,6.51113514 C12.1503119,6.21704782 11.6002952,6.21704782 11.1928254,6.51113514 C10.9778919,6.67813098 10.6770811,6.67813098 10.4621476,6.51113514 C10.0546778,6.21704782 9.50466112,6.21704782 9.09719127,6.51113514 C8.8822578,6.67813098 8.58144699,6.67813098 8.36651351,6.51113514 C7.95904366,6.21704782 7.40902703,6.21704782 7.00155717,6.51113514 Z M19.2100229,16.0665281 L7.8286341,16.0665281 L3.98663825,12.2245322 L4.5405842,11.6705863 L7.43675052,14.5667526 L8.13529522,15.2652973 C8.20082744,15.3310042 8.28980457,15.3679834 8.38258004,15.3679834 L19.2100229,15.3679834 L19.2100229,16.0665281 Z" id="Shape" fill-rule="nonzero"></path>
                <path d="M17.8129335,1.55216632 C16.9344699,1.55312682 16.2226091,2.26498753 16.2216486,3.14345114 C16.2216486,4.02230769 16.9340769,4.73473597 17.8129335,4.73473597 C18.69179,4.73473597 19.4042183,4.02230769 19.4042183,3.14345114 C19.4042183,2.26459459 18.69179,1.55216632 17.8129335,1.55216632 Z M17.8129335,4.03619127 C17.3198919,4.03619127 16.9201933,3.63649272 16.9201933,3.14345114 C16.9207609,2.65062786 17.3201102,2.25127859 17.8129335,2.25071102 C18.3059751,2.25071102 18.7056736,2.65040956 18.7056736,3.14345114 C18.7056736,3.63649272 18.3059751,4.03619127 17.8129335,4.03619127 Z" id="Shape" fill-rule="nonzero"></path>
                <path d="M15.6394116,2.79417879 L15.0187547,2.79417879 C14.825869,2.79417879 14.6694823,2.95056549 14.6694823,3.14345114 C14.6694823,3.3363368 14.825869,3.49272349 15.0187547,3.49272349 L15.6394116,3.49272349 C15.8322973,3.49272349 15.988684,3.3363368 15.988684,3.14345114 C15.988684,2.95056549 15.8322973,2.79417879 15.6394116,2.79417879 Z" id="Path"></path>
                <path d="M16.52342,1.36006653 L16.0840353,0.920681913 C15.9452869,0.786692308 15.7241538,0.790534304 15.5901642,0.929282744 C15.4594491,1.06462578 15.4594491,1.27920998 15.5901642,1.41455301 L16.0295489,1.85393763 C16.1682973,1.98797089 16.3893867,1.9841289 16.52342,1.84538046 C16.6541351,1.70999376 16.6541351,1.49540956 16.52342,1.36006653 Z" id="Path"></path>
                <path d="M17.8129335,0 C17.6200478,0 17.4636611,0.156386694 17.4636611,0.349272349 L17.4636611,0.969929314 C17.4636611,1.16281497 17.6200478,1.31920166 17.8129335,1.31920166 C18.0058191,1.31920166 18.1622058,1.16281497 18.1622058,0.969929314 L18.1622058,0.349272349 C18.1622058,0.156386694 18.0058191,0 17.8129335,0 Z" id="Path"></path>
                <path d="M20.0357027,0.920681913 C19.8993119,0.784334719 19.6782225,0.784334719 19.5418316,0.920681913 L19.102447,1.36006653 C18.9636985,1.49409979 18.9598565,1.71518919 19.0938898,1.85393763 C19.2279231,1.99268607 19.4490125,1.99652807 19.5877609,1.8624948 C19.5906861,1.85970062 19.5935239,1.85681913 19.5963181,1.85393763 L20.0357027,1.41455301 C20.1720499,1.27816216 20.1720499,1.05707277 20.0357027,0.920681913 Z" id="Path"></path>
                <path d="M20.6071123,2.79417879 L19.9864553,2.79417879 C19.7935696,2.79417879 19.637183,2.95056549 19.637183,3.14345114 C19.637183,3.3363368 19.7935696,3.49272349 19.9864553,3.49272349 L20.6071123,3.49272349 C20.7999979,3.49272349 20.9563846,3.3363368 20.9563846,3.14345114 C20.9563846,2.95056549 20.7999979,2.79417879 20.6071123,2.79417879 Z" id="Path"></path>
                <path d="M20.0357027,4.87234927 L19.5963181,4.43296466 C19.4599272,4.29661746 19.2388378,4.29661746 19.102447,4.43296466 C18.9660998,4.56935551 18.9660998,4.79044491 19.102447,4.92683576 L19.5418316,5.36622037 C19.68058,5.50025364 19.9016694,5.49641164 20.0357027,5.3576632 C20.1664179,5.22227651 20.1664179,5.00769231 20.0357027,4.87234927 Z" id="Path"></path>
                <path d="M17.8129335,4.96770062 C17.6200478,4.96770062 17.4636611,5.12408732 17.4636611,5.31697297 L17.4636611,5.93762994 C17.4636611,6.13051559 17.6200478,6.28690229 17.8129335,6.28690229 C18.0058191,6.28690229 18.1622058,6.13051559 18.1622058,5.93762994 L18.1622058,5.31697297 C18.1622058,5.12408732 18.0058191,4.96770062 17.8129335,4.96770062 Z" id="Path"></path>
                <path d="M16.5148628,4.43296466 C16.3795198,4.30224948 16.1649356,4.30224948 16.0295489,4.43296466 L15.5901642,4.87234927 C15.4514158,5.00638254 15.4475738,5.22747193 15.5816071,5.36622037 C15.7156403,5.50496881 15.9367297,5.50881081 16.0754782,5.37477755 C16.0784033,5.37198337 16.0812412,5.36910187 16.0840353,5.36622037 L16.52342,4.92683576 C16.6574096,4.78808732 16.6536112,4.56695426 16.5148628,4.43296466 Z" id="Path"></path>
            </g>
        </g>
    </g>
</svg>