<?xml version="1.0" encoding="UTF-8"?>
<svg width="17px" height="19px" viewBox="0 0 17 19" version="1.1" xmlns="http://www.w3.org/2000/svg" xmlns:xlink="http://www.w3.org/1999/xlink">
    <title>002-telephone-directory-interface-symbol</title>
    <g id="MIS-UI" stroke="none" stroke-width="1" fill="none" fill-rule="evenodd">
        <g id="7.1.7a-My-Appraisals-Review-Form" transform="translate(-27.000000, -297.000000)" fill="#FFFFFF">
            <g id="002-telephone-directory-interface-symbol" transform="translate(27.000000, 297.000000)">
                <path d="M10.2578228,14.5763389 C10.3708054,14.590629 10.4974656,14.5700138 10.5554137,14.4597539 C10.5685248,14.4328136 10.6930808,14.3495721 10.7954611,14.2448564 C10.8291293,14.2242412 10.8595601,14.1956611 10.8829497,14.1516977 C10.8899909,14.1402188 10.8956562,14.1192132 10.9018071,14.1017216 C10.9038305,14.09852 10.9079581,14.094147 10.9096576,14.0918044 C10.9120856,14.0850108 10.9105479,14.0799351 10.9129759,14.0743127 C11.0744374,13.5592459 11.1977793,11.5306042 10.7312812,11.339133 C10.5241735,11.2542516 10.4543283,11.2018547 10.2439833,11.2272332 C9.41004904,11.3271856 9.3237744,10.7894733 9.33494316,10.0288986 C9.34805431,9.05209884 9.08502188,7.69672969 10.4346615,7.81565734 C10.528382,7.8241689 10.613038,7.76013695 10.6615978,7.69017032 C11.0528282,7.12372175 11.3997073,5.79318451 11.0487006,4.94124711 C10.6434688,3.95788802 9.1771237,4.5637709 8.57522455,5.07524569 C6.74864639,6.62723981 6.96546605,10.109407 7.47178325,12.1217285 C7.85241142,13.6374118 8.74591237,14.3789331 10.2578228,14.5763389 Z" id="Path"></path>
                <path d="M0.823271382,5.68434189e-14 L0.823271382,3.34250511 L0,3.34250511 L0,4.56065905 L0.823271382,4.56065905 L0.823271382,6.85195977 L0,6.85195977 L0,8.07011372 L0.823271382,8.07011372 L0.823271382,10.557178 L0,10.557178 L0,11.775332 L0.823271382,11.775332 L0.823271382,14.4652658 L0,14.4652658 L0,15.6834197 L0.823271382,15.6834197 L0.823271382,19 L17,19 L17,5.68434189e-14 L0.823271382,5.68434189e-14 Z M15.4615385,17.7753906 L2.38461538,17.7753906 L2.38461538,15.6785307 L3.37930862,15.6785307 L3.37930862,14.4612861 L2.38461538,14.4612861 L2.38461538,11.7732823 L3.37930862,11.7732823 L3.37930862,10.5561158 L2.38461538,10.5561158 L2.38461538,8.07090802 L3.37930862,8.07090802 L3.37930862,6.85366341 L2.38461538,6.85366341 L2.38461538,4.56415116 L3.37930862,4.56415116 L3.37930862,3.34698458 L2.38461538,3.34698458 L2.38461538,1.22460938 L15.4615385,1.22460938 L15.4615385,17.7753906 Z" id="Shape" fill-rule="nonzero"></path>
            </g>
        </g>
    </g>
</svg>