<svg width="28" height="28" viewBox="0 0 28 28" fill="none" xmlns="http://www.w3.org/2000/svg">
<rect width="28" height="28" fill="white"/>
<path d="M0 0.999998C0 0.447714 0.447715 0 1 0H27C27.5523 0 28 0.447715 28 1V18.6667H0V0.999998Z" fill="#F1F1F1"/>
<path fill-rule="evenodd" clip-rule="evenodd" d="M8.46094 16.333C8.01154 16.333 7.65845 16.0745 7.49794 15.9129C6.95225 15.2666 6.95225 14.7172 7.04854 14.3617C7.11276 14.0385 7.30535 13.7477 7.59423 13.5538C8.01154 13.2306 9.16708 12.4228 10.8684 11.7118C11.7671 10.0637 12.377 8.73875 12.7943 7.67237C12.0881 6.3151 11.8313 5.21636 11.7671 4.667C11.7029 4.21457 11.7351 3.76215 11.8634 3.37437C12.1845 2.34029 12.8906 2.30794 13.1795 2.34029C13.2437 2.34029 14.3672 2.50188 14.5597 4.11763C14.5597 4.12145 14.5602 4.12866 14.5609 4.13934L14.5609 4.13937C14.5715 4.30952 14.6368 5.35977 13.8215 7.64002C14.3672 8.57716 15.1375 9.6113 16.3252 10.6131C17.4487 10.6131 18.6685 10.71 19.9525 11.0332C20.2413 11.0979 20.4982 11.2594 20.6907 11.4856C21.0118 11.8411 21.0759 12.2935 20.9154 12.746C20.9154 12.746 20.8512 12.9722 20.6586 13.1984C20.3055 13.6831 19.6314 13.8447 19.0858 13.5539C17.866 12.9076 16.8388 12.229 16.0042 11.518C14.3029 11.5826 12.7943 11.9704 11.5745 12.4551C11.0288 13.4569 10.3548 14.5557 9.58434 15.7836C9.42383 16.0098 9.23124 16.2038 8.97444 16.3007C8.84646 16.3007 8.73929 16.3112 8.64702 16.3202L8.64699 16.3202C8.57733 16.327 8.51616 16.333 8.46094 16.333ZM10.0336 13.0691C9.07056 13.5862 8.3965 14.0386 8.1397 14.2648C8.0434 14.3617 7.94711 14.4587 7.94711 14.5556C7.88289 14.7818 7.97919 15.008 8.20391 15.2666C8.20391 15.2666 8.3965 15.4282 8.58909 15.3635C8.6533 15.3312 8.71747 15.2989 8.7496 15.2019C8.8879 14.9732 9.02621 14.7475 9.16264 14.5249L9.16299 14.5243L9.16344 14.5236L9.16348 14.5235C9.47006 14.0232 9.76717 13.5384 10.0336 13.0691ZM19.4393 12.6813C18.7331 12.3258 18.0911 11.9057 17.5133 11.5179C18.2195 11.5826 18.9257 11.6795 19.6319 11.8734C19.7603 11.9058 19.8566 11.9704 19.9208 12.035C20.0171 12.132 20.0171 12.1966 19.9528 12.3582C19.9528 12.3582 19.9208 12.4551 19.8245 12.5844C19.7282 12.7136 19.5677 12.746 19.4393 12.6813ZM13.3399 8.64186C13.0189 9.38512 12.6337 10.2253 12.1202 11.1948C12.9869 10.9363 13.9177 10.7101 14.9449 10.6131C14.3029 9.93449 13.7572 9.25583 13.3399 8.64186ZM12.698 3.63291C12.7943 3.34202 12.8906 3.21278 13.019 3.21278C13.0511 3.21278 13.5005 3.30972 13.5968 4.18227C13.5968 4.18227 13.6609 4.82859 13.1795 6.37974C12.8264 5.53954 12.698 4.89323 12.6338 4.50546C12.6017 4.18227 12.6017 3.89144 12.698 3.63291Z" fill="#E56353"/>
<path d="M0 18.667H28V27.0003C28 27.5526 27.5523 28.0003 27 28.0003H1C0.447715 28.0003 0 27.5526 0 27.0003V18.667Z" fill="#E56353"/>
<path fill-rule="evenodd" clip-rule="evenodd" d="M14.0955 19.7041H11.4433V26.9634H14.0955C16.1126 26.9634 17.2566 25.6412 17.2566 23.2835C17.2566 21.0112 16.0986 19.7041 14.0955 19.7041ZM4.99951 19.7091H7.81041C9.19718 19.7091 10.145 20.7095 10.145 22.2177C10.145 23.7108 9.15982 24.7112 7.74037 24.7112H6.40963V26.9634H4.99951V19.7091ZM6.40984 20.9559V23.4795H7.43241C8.24019 23.4795 8.71178 23.0371 8.71178 22.2227C8.71178 21.3983 8.24953 20.9559 7.43707 20.9559H6.40984ZM12.8537 21.0011V25.6663H13.8716C15.1183 25.6663 15.8186 24.8419 15.8186 23.3086C15.8186 21.8407 15.0949 21.0011 13.8716 21.0011H12.8537ZM18.5871 26.9634H19.9972V24.1381H22.738V22.8964H19.9972V21.0061H22.9995V19.7091H18.5871V26.9634Z" fill="white"/>
</svg>
