<?xml version="1.0" encoding="UTF-8"?>
<svg width="19px" height="19px" viewBox="0 0 19 19" version="1.1" xmlns="http://www.w3.org/2000/svg" xmlns:xlink="http://www.w3.org/1999/xlink">
    <title>002-work-team</title>
    <g id="MIS-UI" stroke="none" stroke-width="1" fill="none" fill-rule="evenodd">
        <g id="7.1.7a-My-Appraisals-Review-Form" transform="translate(-27.000000, -600.000000)" fill="#FFFFFF">
            <g id="002-work-team" transform="translate(27.000000, 600.000000)">
                <path d="M17.0084833,3.57453333 L15.42515,1.9912 C15.3191458,1.88507708 15.1532521,1.86789792 15.0277333,1.95003333 L13.2683333,3.10333333 L11.3711833,2.31166667 L11.0801667,0.271699999 C11.0578021,0.115741666 10.9242083,-1.09368386e-08 10.7666667,-1.09368386e-08 L8.23333333,-1.09368386e-08 C8.07579167,-1.09368386e-08 7.94219792,0.115741666 7.91983333,0.271699999 L7.6285,2.31166667 L5.73325,3.10333333 L3.97353333,1.95066667 C3.84801458,1.86853125 3.68212083,1.88571042 3.57611667,1.99183333 L1.99278333,3.57516667 C1.88654167,3.68144792 1.8696,3.8477375 1.95225,3.97321667 L3.12391667,5.75288333 L2.92758333,6.20666667 L3.50898333,6.4581 L3.7734,5.84756667 C3.81587292,5.74947917 3.80597708,5.6365875 3.74711667,5.54736667 L2.62231667,3.84053333 L3.84116667,2.62168333 L5.52646667,3.72558333 C5.61469792,3.78270208 5.72537292,3.79291458 5.82255,3.75281667 L8.03921667,2.82466667 C8.14157917,2.78128333 8.2137,2.68743125 8.22921667,2.57735 L8.50788333,0.633333333 L10.4921167,0.633333333 L10.7698333,2.5783 C10.78535,2.68838125 10.8574708,2.78223333 10.9598333,2.82561667 L13.1765,3.75313333 C13.2735583,3.79323125 13.3841542,3.78301875 13.4722667,3.7259 L15.1582,2.62263333 L16.3856,3.85003333 L15.5622667,5.24336667 C15.5132625,5.32597708 15.5043958,5.4264 15.5382,5.51633333 L15.8893833,6.44385 L16.4818667,6.21965 L16.1845167,5.43463333 L17.0569333,3.9596 C17.1305583,3.83522917 17.1106083,3.67677708 17.0084833,3.57453333 Z" id="Path"></path>
                <path d="M12.89055,12.1261167 L11.94055,11.1761167 C11.881175,11.1167417 11.8006625,11.0833333 11.7166667,11.0833333 L7.28333333,11.0833333 C7.1993375,11.0833333 7.118825,11.1167417 7.05945,11.1761167 L6.10945,12.1261167 C6.050075,12.1854917 6.01666667,12.2660042 6.01666667,12.35 L6.01666667,18.6833333 C6.01666667,18.8582125 6.15845417,19 6.33333333,19 L12.6666667,19 C12.8415458,19 12.9833333,18.8582125 12.9833333,18.6833333 L12.9833333,12.35 C12.9833333,12.2660042 12.949925,12.1854917 12.89055,12.1261167 Z M10.5811,11.7166667 L11.5855667,11.7166667 L10.45,12.8522333 L9.94776667,12.35 L10.5811,11.7166667 Z M10.0022333,13.3 L9.59278333,13.70945 C9.53321042,13.7687062 9.49980208,13.8492979 9.5,13.9333333 C9.49940625,13.8501292 9.46607708,13.7704875 9.40721667,13.7116667 L8.99776667,13.3 L9.5,12.7977667 L10.0022333,13.3 Z M9.68556667,11.7166667 L9.5,11.9022333 L9.31443333,11.7166667 L9.68556667,11.7166667 Z M8.4189,11.7166667 L9.05223333,12.35 L8.55,12.8522333 L7.41443333,11.7166667 L8.4189,11.7166667 Z M8.27291667,18.3666667 L6.65,18.3666667 L6.65,12.4811 L6.96666667,12.1644333 L8.32611667,13.5238833 L8.84861667,14.0463833 L8.27291667,18.3666667 Z M8.91195,18.3666667 L9.49715,13.9751333 C9.49905,13.9617937 9.5,13.948375 9.5,13.9349167 C9.50007917,13.9552229 9.50217708,13.9754896 9.50633333,13.9954 L10.3803333,18.3666667 L8.91195,18.3666667 Z M12.35,18.3666667 L11.0263333,18.3666667 L10.1605667,14.0375167 L10.6738833,13.5238833 L12.0333333,12.1644333 L12.35,12.4811 L12.35,18.3666667 Z" id="Shape" fill-rule="nonzero"></path>
                <path d="M11.7166667,4.11666667 L8.86666667,4.11666667 C7.81774792,4.11769583 6.96769583,4.96774792 6.96666667,6.01666667 L6.96666667,7.91666667 C6.96825,9.31514583 8.10152083,10.4484167 9.5,10.45 C10.8984792,10.4484167 12.03175,9.31514583 12.0333333,7.91666667 L12.0333333,4.43333333 C12.0333333,4.25845417 11.8915458,4.11666667 11.7166667,4.11666667 Z M11.4,7.91666667 C11.4,8.96602083 10.5493542,9.81666667 9.5,9.81666667 C8.45064583,9.81666667 7.6,8.96602083 7.6,7.91666667 L7.6,6.65 L10.1333333,6.65 C10.6013667,6.64988125 11.0527354,6.47611042 11.4,6.16233333 L11.4,7.91666667 Z M10.1333333,6.01666667 L7.6,6.01666667 C7.6,5.31711042 8.16711042,4.75 8.86666667,4.75 L11.4,4.75 C11.4,5.44955625 10.8328896,6.01666667 10.1333333,6.01666667 Z" id="Shape" fill-rule="nonzero"></path>
                <path d="M18.9072167,13.3927833 L17.9572167,12.4427833 C17.8978417,12.3834083 17.8173292,12.35 17.7333333,12.35 L15.2,12.35 C15.1160042,12.35 15.0354917,12.3834083 14.9761167,12.4427833 L14.0261167,13.3927833 C13.9667417,13.4521583 13.9333333,13.5326708 13.9333333,13.6166667 L13.9333333,18.6833333 C13.9333333,18.8582125 14.0751208,19 14.25,19 L18.6833333,19 C18.8582125,19 19,18.8582125 19,18.6833333 L19,13.6166667 C19,13.5326708 18.9665917,13.4521583 18.9072167,13.3927833 Z M18.3666667,18.3666667 L16.7833333,18.3666667 L16.7833333,13.6166667 L16.15,13.6166667 L16.15,18.3666667 L14.5666667,18.3666667 L14.5666667,13.7477667 L15.2,13.1144333 L15.9261167,13.84055 L16.15,13.6166667 L16.3738833,13.3927833 L15.9644333,12.9833333 L16.9939167,12.9833333 L16.5661,13.3858167 L16.7833333,13.6166667 L17.0005667,13.8475167 L17.7555,13.1366 L18.3666667,13.7477667 L18.3666667,18.3666667 Z" id="Shape" fill-rule="nonzero"></path>
                <path d="M16.7833333,6.96666667 L16.16045,6.96666667 C15.288825,6.96840833 14.5818271,7.67299167 14.5771167,8.54461667 L14.5720393,10.1301667 C14.5685667,11.1777396 15.4149375,12.0298104 16.46255,12.0333333 C16.4646479,12.0333333 16.4667854,12.0333333 16.4688833,12.0333333 C17.5161396,12.0321063 18.364925,11.1837562 18.3666667,10.1365 L18.3666667,8.55 C18.3656375,7.676 17.6573333,6.96769583 16.7833333,6.96666667 Z M15.21045,8.54683333 C15.2121521,8.02746042 15.6306667,7.6057 16.15,7.6 C16.1500396,8.1206 15.73105,8.54426042 15.21045,8.55 L15.21045,8.54683333 Z M17.7333333,10.13555 C17.7321063,10.8330083 17.1672917,11.3982583 16.4698333,11.4 C15.7720187,11.4 15.2063333,10.8343146 15.2063333,10.1365 C15.2063333,10.1354312 15.2063333,10.1344021 15.2063333,10.1333333 L15.2095,9.18333333 C15.7045292,9.18036458 16.1696729,8.94603125 16.4666667,8.55 C16.7656792,8.94868333 17.2349792,9.18333333 17.7333333,9.18333333 L17.7333333,10.13555 L17.7333333,10.13555 Z M16.7833333,7.6 C17.3080104,7.6 17.7333333,8.02532292 17.7333333,8.55 C17.2086563,8.55 16.7833333,8.12467708 16.7833333,7.6 Z" id="Shape" fill-rule="nonzero"></path>
                <path d="M4.97388333,13.3927833 L4.02388333,12.4427833 C3.96450833,12.3834083 3.88399583,12.35 3.8,12.35 L1.26666667,12.35 C1.18267083,12.35 1.10215833,12.3834083 1.04278333,12.4427833 L0.0927833333,13.3927833 C0.0334083333,13.4521583 0,13.5326708 0,13.6166667 L0,18.6833333 C0,18.8582125 0.1417875,19 0.316666667,19 L4.75,19 C4.92487917,19 5.06666667,18.8582125 5.06666667,18.6833333 L5.06666667,13.6166667 C5.06666667,13.5326708 5.03325833,13.4521583 4.97388333,13.3927833 Z M4.43333333,18.3666667 L2.85,18.3666667 L2.85,13.6166667 L2.21666667,13.6166667 L2.21666667,18.3666667 L0.633333333,18.3666667 L0.633333333,13.7477667 L1.26666667,13.1144333 L1.99278333,13.84055 L2.21666667,13.6166667 L2.44055,13.3927833 L2.0311,12.9833333 L3.06058333,12.9833333 L2.63276667,13.3858167 L2.85,13.6166667 L3.06723333,13.8475167 L3.82216667,13.1366 L4.43333333,13.7477667 L4.43333333,18.3666667 Z" id="Shape" fill-rule="nonzero"></path>
                <path d="M2.85,6.96666667 L2.22711667,6.96666667 C1.35549167,6.96840833 0.64849375,7.67299167 0.643783333,8.54461667 L0.638705953,10.1301667 C0.635233333,11.1777396 1.48160417,12.0298104 2.52921667,12.0333333 C2.53131458,12.0333333 2.53345208,12.0333333 2.53555,12.0333333 C3.58280625,12.0321063 4.43159167,11.1837562 4.43333333,10.1365 L4.43333333,8.55 C4.43230417,7.676 3.724,6.96769583 2.85,6.96666667 Z M2.85,7.6 C3.2511375,7.6016625 3.60802083,7.85511458 3.74173333,8.23333333 L3.16666667,8.23333333 C2.76552917,8.23167083 2.40864583,7.97821875 2.27493333,7.6 L2.85,7.6 Z M1.58333333,7.85586667 L1.58333333,7.91381667 C1.58372917,7.99808958 1.55004375,8.07895833 1.48991667,8.13801667 C1.44875,8.178075 1.39701458,8.20554583 1.34076667,8.21718333 C1.39258125,8.07959167 1.47562708,7.95593333 1.58333333,7.85586667 Z M3.8,10.1365 C3.79825833,10.8336021 3.23360208,11.3982583 2.5365,11.4 C1.83868542,11.4 1.273,10.8343146 1.273,10.1365 C1.273,10.1354312 1.273,10.1344021 1.273,10.1333333 L1.27711667,8.86413333 C1.52502708,8.86274792 1.76240833,8.76363125 1.93768333,8.58831667 C1.98775625,8.53761042 2.03201042,8.48156042 2.06973333,8.42111667 C2.36356042,8.70655208 2.75701875,8.86635 3.16666667,8.86666667 L3.8,8.86666667 L3.8,10.1365 Z" id="Shape" fill-rule="nonzero"></path>
            </g>
        </g>
    </g>
</svg>