<svg width="28" height="28" viewBox="0 0 28 28" fill="none" xmlns="http://www.w3.org/2000/svg">
<path d="M27.125 24.2245H14.875C14.392 24.2245 14 23.8081 14 23.295C14 22.782 14 5.21889 14 4.70583C14 4.19277 14.392 3.77637 14.875 3.77637H27.125C27.608 3.77637 28 4.19277 28 4.70583V23.295C28 23.8081 27.608 24.2245 27.125 24.2245Z" fill="#ECEFF1"/>
<path d="M18.375 9.35306H14.875C14.392 9.35306 14 8.93666 14 8.4236C14 7.91054 14.392 7.49414 14.875 7.49414H18.375C18.858 7.49414 19.25 7.91054 19.25 8.4236C19.25 8.93666 18.858 9.35306 18.375 9.35306Z" fill="#388E3C"/>
<path d="M18.375 13.0708H14.875C14.392 13.0708 14 12.6544 14 12.1414C14 11.6283 14.392 11.2119 14.875 11.2119H18.375C18.858 11.2119 19.25 11.6283 19.25 12.1414C19.25 12.6544 18.858 13.0708 18.375 13.0708Z" fill="#388E3C"/>
<path d="M18.375 16.7886H14.875C14.392 16.7886 14 16.3722 14 15.8591C14 15.3461 14.392 14.9297 14.875 14.9297H18.375C18.858 14.9297 19.25 15.3461 19.25 15.8591C19.25 16.3722 18.858 16.7886 18.375 16.7886Z" fill="#388E3C"/>
<path d="M18.375 20.5064H14.875C14.392 20.5064 14 20.09 14 19.5769C14 19.0639 14.392 18.6475 14.875 18.6475H18.375C18.858 18.6475 19.25 19.0639 19.25 19.5769C19.25 20.09 18.858 20.5064 18.375 20.5064Z" fill="#388E3C"/>
<path d="M23.625 9.35306H21.875C21.392 9.35306 21 8.93666 21 8.4236C21 7.91054 21.392 7.49414 21.875 7.49414H23.625C24.108 7.49414 24.5 7.91054 24.5 8.4236C24.5 8.93666 24.108 9.35306 23.625 9.35306Z" fill="#388E3C"/>
<path d="M23.625 13.0708H21.875C21.392 13.0708 21 12.6544 21 12.1414C21 11.6283 21.392 11.2119 21.875 11.2119H23.625C24.108 11.2119 24.5 11.6283 24.5 12.1414C24.5 12.6544 24.108 13.0708 23.625 13.0708Z" fill="#388E3C"/>
<path d="M23.625 16.7886H21.875C21.392 16.7886 21 16.3722 21 15.8591C21 15.3461 21.392 14.9297 21.875 14.9297H23.625C24.108 14.9297 24.5 15.3461 24.5 15.8591C24.5 16.3722 24.108 16.7886 23.625 16.7886Z" fill="#388E3C"/>
<path d="M23.625 20.5064H21.875C21.392 20.5064 21 20.09 21 19.5769C21 19.0639 21.392 18.6475 21.875 18.6475H23.625C24.108 18.6475 24.5 19.0639 24.5 19.5769C24.5 20.09 24.108 20.5064 23.625 20.5064Z" fill="#388E3C"/>
<path d="M15.4332 0.272646C15.2338 0.0960481 14.966 0.0198323 14.714 0.0755999L0.714 2.86398C0.29925 2.94577 0 3.32871 0 3.77671V24.2248C0 24.671 0.29925 25.0558 0.714 25.1376L14.714 27.926C14.7665 27.9371 14.8207 27.9427 14.875 27.9427C15.078 27.9427 15.2758 27.8683 15.4332 27.7289C15.6345 27.5523 15.75 27.2883 15.75 27.0132V0.98833C15.75 0.711351 15.6345 0.449243 15.4332 0.272646Z" fill="#2E7D32"/>
<path d="M12.0334 17.1069L9.26666 13.7479L12.0649 9.92591C12.3624 9.52067 12.2924 8.93696 11.9127 8.62095C11.5329 8.30493 10.9834 8.37929 10.6842 8.78267L8.09241 12.3221L5.90841 9.67124C5.58816 9.28086 5.03516 9.24554 4.67466 9.58387C4.31066 9.92219 4.27391 10.5096 4.59241 10.8944L6.99866 13.8166L4.55916 17.1478C4.26166 17.5531 4.33166 18.1368 4.71141 18.4528C4.87241 18.5848 5.06316 18.648 5.25041 18.648C5.51116 18.648 5.76841 18.5253 5.94166 18.2892L8.17291 15.2406L10.7174 18.3282C10.8907 18.5401 11.1322 18.648 11.3754 18.648C11.5802 18.648 11.7849 18.5718 11.9512 18.4175C12.3152 18.0791 12.3519 17.4917 12.0334 17.1069Z" fill="#FAFAFA"/>
</svg>
