<svg 
    width="24" 
    height="18" 
    viewBox="0 0 24 18" 
    fill="none" 
    xmlns="http://www.w3.org/2000/svg">
    <path d="M8.82841 9C8.82841 8.18777 9.15106 7.40882 9.72539 6.83449C10.2997 6.26015 11.0787 5.9375 11.8909 5.9375C12.7031 5.9375 13.4821 6.26015 14.0564 6.83449C14.6308 7.40882 14.9534 8.18777 14.9534 9C14.9534 9.81223 14.6308 10.5912 14.0564 11.1655C13.4821 11.7398 12.7031 12.0625 11.8909 12.0625C11.0787 12.0625 10.2997 11.7398 9.72539 11.1655C9.15106 10.5912 8.82841 9.81223 8.82841 9ZM23.7636 9.70547C21.1714 15.166 17.253 17.9141 12.0003 17.9141C6.74481 17.9141 2.82919 15.166 0.236999 9.70273C0.133025 9.48257 0.0791016 9.24211 0.0791016 8.99863C0.0791016 8.75515 0.133025 8.5147 0.236999 8.29453C2.82919 2.83398 6.74755 0.0859375 12.0003 0.0859375C17.2557 0.0859375 21.1714 2.83398 23.7636 8.29727C23.9741 8.74023 23.9741 9.2543 23.7636 9.70547ZM11.8909 4.1875C9.23309 4.1875 7.07841 6.34219 7.07841 9C7.07841 11.6578 9.23309 13.8125 11.8909 13.8125C14.5487 13.8125 16.7034 11.6578 16.7034 9C16.7034 6.34219 14.5487 4.1875 11.8909 4.1875Z" fill="#8A49C6"/>
</svg>
