<svg
    width="20"
    height="20"
    viewBox="0 0 20 20"
    fill="none"
    xmlns="http://www.w3.org/2000/svg">
    <path
        d="M10.0108 7.39072C9.36846 7.39072 8.7669 7.63994 8.31143 8.09541C7.85811 8.55088 7.60674 9.15244 7.60674 9.79482C7.60674 10.4372 7.85811 11.0388 8.31143 11.4942C8.7669 11.9476 9.36846 12.1989 10.0108 12.1989C10.6532 12.1989 11.2548 11.9476 11.7103 11.4942C12.1636 11.0388 12.4149 10.4372 12.4149 9.79482C12.4149 9.15244 12.1636 8.55088 11.7103 8.09541C11.4878 7.87124 11.223 7.6935 10.9313 7.57253C10.6395 7.45155 10.3267 7.38976 10.0108 7.39072ZM18.8689 12.4503L17.4638 11.2493C17.5304 10.8411 17.5648 10.4243 17.5648 10.0097C17.5648 9.59502 17.5304 9.17607 17.4638 8.77002L18.8689 7.56904C18.975 7.47818 19.051 7.35716 19.0867 7.22207C19.1223 7.08698 19.1161 6.94423 19.0687 6.81279L19.0493 6.75693C18.6626 5.6756 18.0832 4.67328 17.3392 3.79853L17.3005 3.75342C17.2101 3.64718 17.0897 3.57081 16.9551 3.53438C16.8205 3.49794 16.678 3.50315 16.5464 3.54932L14.8019 4.17021C14.1573 3.6417 13.4398 3.2249 12.662 2.93486L12.3247 1.11084C12.2993 0.973431 12.2326 0.847017 12.1336 0.748394C12.0346 0.64977 11.9079 0.583606 11.7704 0.558691L11.7124 0.547949C10.5952 0.345996 9.41788 0.345996 8.30069 0.547949L8.24268 0.558691C8.10517 0.583606 7.9785 0.64977 7.87949 0.748394C7.78049 0.847017 7.71383 0.973431 7.68838 1.11084L7.34893 2.94346C6.57856 3.23581 5.86091 3.65159 5.22413 4.17451L3.4667 3.54932C3.33515 3.50279 3.19254 3.49739 3.05785 3.53385C2.92315 3.5703 2.80273 3.64689 2.7126 3.75342L2.67393 3.79853C1.9312 4.67422 1.35193 5.67629 0.963774 6.75693L0.944438 6.81279C0.847758 7.08135 0.92725 7.38213 1.14424 7.56904L2.56651 8.78291C2.49991 9.18682 2.46768 9.59932 2.46768 10.0075C2.46768 10.42 2.49991 10.8325 2.56651 11.2321L1.14854 12.446C1.0424 12.5369 0.96643 12.6579 0.930739 12.793C0.895049 12.9281 0.901325 13.0708 0.948735 13.2022L0.968071 13.2581C1.35694 14.3388 1.93057 15.3378 2.67823 16.2165L2.7169 16.2616C2.80725 16.3679 2.92767 16.4442 3.06229 16.4807C3.1969 16.5171 3.3394 16.5119 3.471 16.4657L5.22842 15.8405C5.86866 16.3669 6.58194 16.7837 7.35323 17.0716L7.69268 18.9042C7.71813 19.0416 7.78478 19.168 7.88379 19.2666C7.9828 19.3653 8.10947 19.4314 8.24698 19.4563L8.30499 19.4671C9.43316 19.6701 10.5885 19.6701 11.7167 19.4671L11.7747 19.4563C11.9122 19.4314 12.0389 19.3653 12.1379 19.2666C12.2369 19.168 12.3036 19.0416 12.329 18.9042L12.6663 17.0802C13.444 16.788 14.1616 16.3733 14.8062 15.8448L16.5507 16.4657C16.6822 16.5123 16.8248 16.5176 16.9595 16.4812C17.0942 16.4447 17.2147 16.3682 17.3048 16.2616L17.3435 16.2165C18.0911 15.3335 18.6648 14.3388 19.0536 13.2581L19.073 13.2022C19.1653 12.9358 19.0858 12.6372 18.8689 12.4503ZM10.0108 13.5718C7.92471 13.5718 6.23389 11.881 6.23389 9.79482C6.23389 7.70869 7.92471 6.01787 10.0108 6.01787C12.097 6.01787 13.7878 7.70869 13.7878 9.79482C13.7878 11.881 12.097 13.5718 10.0108 13.5718Z"
        fill="black"
    />
</svg>